<?xml version="1.0" ?>
<svg xmlns="http://www.w3.org/2000/svg" id="svg1257" width="614.4" height="460.8" version="1.1"
    viewBox="0 0 460.8 345.6">
    <defs id="defs6">
        <style id="style4" type="text/css">
            * {
                stroke-linecap: butt;
                stroke-linejoin: round;
                fill: white;
                stroke: black;
            }
        </style>
    </defs>
    <g id="figure_1">
        <path
            d="M81.378 212.393c.656 6.586 2.244 13.603 6.82 18.62 1.614-.834 6.086-.14 5.038-2.75-2.75-7.616-2.622-16.284.933-23.622 11.183-27.319 30.469-50.32 50.803-71.323-2.61-2.129-4.994 1.711-7.24 2.78-11.561 8.56-22.1 18.393-32.314 28.482-9.574 9.896-18.316 21.192-22.021 34.68-1.265 4.248-2.21 8.679-2.02 13.133z"
            class="region_1346" />
        <path
            d="M68.976 213.919c.362 5.914 2.45 12.595 7.697 15.895 3.434 1.621 7.39 1.233 11.082 1.186-6.24-8.726-8.113-20.384-4.797-30.618 3.141-12.033 10.13-22.6 18.463-31.673 9.573-10.431 20.232-19.843 31.175-28.806a197.294 197.294 0 0 1 9.695-7.12c-1.817-1.133-4.7.147-6.547 1.159-15.876 8.864-29.804 20.874-42.57 33.732-8.707 8.988-16.747 19.003-20.99 30.93-2.07 4.847-3.415 10.008-3.208 15.315z"
            class="region_1352" />
        <path
            d="M101.513 195.863c3.195 2.396 7.707 5.04 11.537 2.277 2.764-1.922 5.443-4.338 6.998-7.338-1.544-1.192-3.944-2.401-5.918-2.142-2.117 1.456-4.902 1.612-7.098 2.468-1.693 1.733-3.697 3.206-5.52 4.735z"
            class="region_1372" />
        <path
            d="M114.719 188.343c1.989-.203 4.74 3.022 5.946 1.157 4.496-9.095 8.73-18.646 16.32-25.662 5.509-5.314 11.833-11.706 20.051-11.576 3.844 1.516 1.43-2.05.57-3.967-1.772-3.82-3.219-7.79-4.545-11.769-7.517 9.844-16.212 18.845-25.271 27.189-.23 9.522-5.455 18.965-13.071 24.628z"
            class="region_1379" />
        <path
            d="M107.667 190.548c7.616-.457 13.082-7.22 16.427-13.508 2.079-4.062 3.682-8.527 3.56-13.149-4.628 3.024-9.339 7.4-15.189 8.425-.09 1.98.877 4.72.366 7.033-.282 4.317-2.118 8.156-5.164 11.199z"
            class="region_1393" />
        <path
            d="M91.45 217.774c.073 3.993.796 8.114 2.484 11.714 4.309-1.31 9.534-2.66 11.148-7.463 3.608-8.59 7.466-17.085 12.17-25.136.845-1.767 3.18-6.182.321-2.525-2.816 3.385-7.684 6.77-12.066 4.044-1.997-.661-3.98-3.612-5.963-1.443-2.545.604-3.358 2.88-4.195 5.076-2.104 4.997-4.39 10.173-3.899 15.733z"
            class="region_1400" />
        <path
            d="M97.283 197.946c5.536-2.477 10.409-6.894 13.687-12.017 1.842-4.049 2.626-8.99 1.079-13.21-5.754 7.83-10.723 16.396-14.766 25.227z"
            class="region_1407" />
        <path
            d="M112.332 172.237c8.114-1.763 14.348-7.915 20.366-13.263 7.334-7.001 14.217-14.523 20.297-22.638-.4-2.12-.521-5.501-2.969-6.226-3.803.718-5.87 4.699-8.647 7.073-10.434 11.017-20.525 22.484-29.047 35.054z"
            class="region_1414" />
        <path
            d="M118.313 195.144c9.441-12.964 21.968-23.666 35.954-31.505 2.68-1.52 5.525-2.712 8.319-3.998-.672-2.27-1.726-4.992-3.267-6.808-7.755-1.988-14.55 3.908-19.83 8.802-6.387 5.836-11.556 12.89-15.14 20.772-2.05 4.224-4.22 8.41-6.036 12.737z"
            class="region_1428" />
        <path
            d="M94.486 229.614c5.446-.798 11.97-1.807 14.615-7.368 5.419-11.758 10.723-23.924 19.832-33.39 3.27-3.688 6.866-7.084 10.68-10.207-2.438-.514-4.535 2.507-6.368 3.995-5.402 5.043-10.003 10.86-14.376 16.775-1.473 1.963-4.623 1.389-5.137 4.165-3.777 6.664-6.162 14.025-9.806 20.73-2.046 3.282-6.24 3.759-9.44 5.3z"
            class="region_1435" />
        <path
            d="M115.23 201.135c4.663-.797 5.983-6.217 9.097-9.143 4.19-4.695 8.313-9.685 13.485-13.308 4.1-.717 6.73-4.4 10.294-6.312 4.856-3.569 10.443-6.046 15.304-9.553 1.11-2.447-1.37-3.69-3.199-1.947-15.854 7.453-29.892 18.862-40.478 32.811-1.573 2.429-3.28 4.826-4.503 7.452z"
            class="region_1442" />
        <path
            d="M152.397 132.855c1.586 6.56 3.907 13.077 7.173 18.935 2.867-.375-.137-3.258-.292-4.853-1.443-2.484.176-4.161 2.771-2.975 10.489 1.145 20.534-2.838 30.623-5.013 4.67-1.285 9.514-2.186 13.934-4.2-8.426.122-16.423 3.305-24.608 4.983-6.908 1.767-14.64 3.55-21.267-.156-3.225-1.5-6.164-3.74-8.097-6.763z"
            class="region_1450" />
        <path
            d="M158.921 145.02c1.163 3.866 2.68 7.888 5.292 11.001 2.866.388 5.728-1.549 8.517-2.279 11.052-4.035 22.598-6.575 33.32-11.489 1.819-.975 4.61-.819 5.566-2.934-4.813-.387-9.656-.996-14.472-1.33-9.52 2.098-18.853 5.361-28.589 6.276-3.222.151-6.462-.124-9.636-.435l.002 1.19z"
            class="region_1464" />
        <path
            d="M197.898 137.78c4.667.599 9.534 1.242 14.13 1.221 1.612-1.975.377-3.49-1.763-3.632-2.11-.828-4.28-.52-6.272.604-2.03.706-4.103 1.225-6.095 1.808z"
            class="region_1471" />
        <path
            d="M159.5 152.059c1.337 2.333 2.059 5.529 3.781 7.32 13.444-5.447 27.667-8.693 41.162-13.986 1.822-1.197 4.62-2.33 5.4-4.238-7.363 2.349-14.33 5.866-21.85 7.808-7.73 2.081-15.162 5.135-22.831 7.368-2.39-.081-2.778-3.287-4.01-4.853-.54.211-1.193.197-1.652.58z"
            class="region_1478" />
        <path
            d="M163.977 133.172c.986 3.179 3.648 5.74 7.126 5.615 7.83.124 15.252-3.004 22.891-4.37 4.113-.717-.878-.495-2.419-1.064-3.482-.696-6.382-3.008-9.294-4.705-6.132 1.292-12.24 2.596-18.265 4.278z"
            class="region_1492" />
        <path
            d="M160.118 124.579c1.555 1.223 4.343-1.286 6.33-1.527 4.28-1.636 8.71-2.928 12.946-4.64.4-3.39-2.628-1.888-4.497-1.173-4.798 1.865-9.986 2.975-14.46 5.529-.423.522-.334 1.189-.319 1.81z"
            class="region_1499" />
        <path
            d="M183.067 128.644c4.825 4.462 11.956 6.21 18.257 4.139 7.368-1.703 14.993-2.747 22.092-5.314-3.267-1.336-6.03-3.745-8.935-5.525-10.425 2.095-20.855 4.194-31.243 6.47z"
            class="region_1506" />
        <path
            d="M160.49 125.74c.88 2.415 2.04 4.717 3.198 7.006 22.771-5.792 46.005-9.486 68.816-15.04 3.938-.186 1.516-2.65-.423-4.025-5.579-4.916-13.7-4.034-20.497-2.973-14.654 2.632-29.086 6.465-42.996 11.774-2.662 1.105-5.744 1.629-8.098 3.259z"
            class="region_1513" />
        <path
            d="M215.197 121.941c2.51 2.341 5.53 4.147 8.673 5.476 4.195-1.737 9.605-3.114 11.517-7.67 1.08-2.912-1.217-2.845-3.238-1.803-5.57 1.632-11.454 2.47-16.952 3.997z"
            class="region_1520" />
        <path
            d="M179.171 116.295c-.26 3.3 3.108 1.142 4.853.767a231.025 231.025 0 0 1 31.46-7.063c6.095-.652 13.055-.43 17.575 4.333 2.85 2.849.341-1.204-.9-2.203-4.924-5.037-12.653-4.272-19.073-3.876-11.54 1.223-22.845 4.11-33.875 7.64l-.04.402z"
            class="region_1527" />
        <path
            d="M62.927 206.144c2.196-1.358 4.545.274 6.455 1.01 2.833-11.525 8.483-22.348 16.295-31.293 4.166-5.275 9.28-9.84 13.715-14.77-1.498-1.743-3.251-4.618-4.98-1.42-10.812 10.81-20.724 22.94-26.588 37.204-1.488 3.165-3.453 6.08-4.897 9.269z"
            class="region_1554" />
        <path
            d="M59.745 210.444c1.838-3.06 4.115-5.774 5.573-9.083 4.103-7.447 7.07-15.543 12.334-22.326a148.15 148.15 0 0 1 18.52-21.14c-.877-1.74-2.848-4.444-4.301-1.592-13.082 13.024-25.34 27.925-30.314 46.061-.743 2.654-1.475 5.34-1.812 8.08z"
            class="region_1560" />
        <path
            d="M60.31 221.624c.078 9.269 1.968 20.044 10.13 25.682-2.878-3.104-5.422-7.247-6.699-11.54-2.146-7.186-2.482-15.024-.848-22.335.508-3.207 3.107-.775 3.199 1.216 1.62 5.216 2.925 11.25 8.09 14.177 3.334 1.899 1.493.586-.334-1.151-4.582-5.572-5.682-13.215-4.6-20.173-1.916-1.855-6.545-2.998-7.177.606-1.453 4.341-1.763 8.975-1.762 13.518z"
            class="region_1566" />
        <path
            d="M58.818 219.97c.289 8.97 1.18 19.036 7.618 25.891 3.579 3.791 8.731 5.86 13.945 5.286 11.998.114 24.033.222 36.011.159-9.626-.735-19.363.045-28.98-1.012-1.474.246-5.063-3.05-2.297-2.971-.1-1.806-2.785.025-4.158.908-5.242 1.712-11.401.152-14.586-4.529-6.327-8.408-6.718-19.67-5.706-29.723.097-2.34 1.168-4.73 1.43-6.882-3.393 3.433-2.87 8.459-3.277 12.874z"
            class="region_1573" />
        <path
            d="M63.386 225.691c-.29 2.65 1.73 2.241 1.986 5.205 1.632 4.968 3.75 11.506 9.557 12.719 2.461.702 4.905-1.324 4.138-3.899-.248-4.493 3.93-7.425 7.822-8.485-2.41-.062-5.062-.289-7.4-.108-1.43 3.44-5.884 6.27-9.187 3.4-3.925-2.62-3.73-7.978-6-11.55-1.36-.435-.814 2.04-.916 2.718z"
            class="region_1586" />
        <path
            d="M61.976 223.764c.18 8.768 2.595 18.5 9.735 24.186 2.873 1.116 6.186 1.069 9.093.17-5.663 1.306-11.623-1.628-14.274-6.754-3.708-6.594-5.114-14.617-3.863-22.062.06-1.996 2.752-2.911 3.116-.572 1.56 3.623 1.406 8.812 5.312 10.852 3.319.189 2-2.082-.016-3.27-3.98-3.907-3.44-10.245-6.685-14.478-1.9.375-1.7 3.455-2.129 5.043-.26 2.284-.318 4.589-.289 6.885z"
            class="region_1592" />
        <path
            d="M62.29 225.118c.465 8.045 2.574 17.425 9.958 21.892 3.41 1.436 8.215 2.273 11.123-.585-1.13-2.178-2.562-2.126-4.01-.204-6.665 1.521-12.105-4.738-13.794-10.581-1.38-3.99-2.78-8.369-2.026-12.591 2.198-.543 1.821 3.308 2.752 4.674.89 3.99 4.291 9.12 9 7.605 1.822-.861 3.52-2.6 4.018-4.516-2.163.011-4.099-1.95-6.04-1.766-3.086 2.212-5.203-2.173-5.905-4.599-.959-2.274-.723-5.791-2.977-7.13-2.661 1.162-1.892 5.44-2.098 7.8z"
            class="region_1599" />
        <path
            d="M63.863 228.883c1.123 6.338 3.448 13.567 9.657 16.64 2.208.917 6.619 1.953 7.265-1.27-1.16-2.513-1.4-3.161-3.026-.867-5.11 1.8-9.038-3.377-10.712-7.549-1.223-2.574-1.671-5.47-2.917-8.012-.488-.024-.184.808-.267 1.058z"
            class="region_1600" />
        <path
            d="M79.672 236.865c4.481-5.84 12.621-5.54 19.22-6.769 6.025-.18 11.252-4.244 13.62-9.667 2.962-6.165 5.692-12.457 9.168-18.36-2.39-2.68-3.21 2.105-4.442 3.62-3.49 6.033-5.609 12.807-9.342 18.676-4.275 5.176-11.623 4.622-17.544 6.307-4.093.694-8.852 2.052-10.68 6.193z"
            class="region_1607" />
        <path
            d="M120.027 200.864c1.928 1.33 4.044 2.36 4.933-.643 9.615-13.339 22.39-24.571 37.292-31.63 2.602-.7 5.065-1.574 2.493-4.289-.72-3.176-2.995.781-4.777 1.007-15.704 8.683-30.424 20.11-39.941 35.555z"
            class="region_1613" />
        <path
            d="M79.147 239.732c.622 3.98.396.315 1.002-1.487 2.28-5.707 9.369-5.875 14.56-6.566 5.775-.75 12.967-.296 16.911-5.38 3.594-7.33 6.094-15.219 10.692-22.049 1.756-3.266-1.919-1.707-2.091.726-3.877 6.372-5.871 13.782-10.298 19.81-3.386 4.681-9.356 5.368-14.646 5.971-5.804.9-13.689 1.471-16.054 7.875l-.076 1.1z"
            class="region_1619" />
        <path
            d="M161.3 121.86c17.896-6.29 36.142-12.687 55.214-13.947-1.22-1.326-4.163-.856-6.068-.754-15.215 2.103-29.977 6.618-44.552 11.324-1.73.746-3.685 1.62-4.594 3.377z"
            class="region_1626" />
        <path
            d="M94.944 155.908c1.574 1.529 3.227 4.49 4.996 4.92 13.428-12.383 27.906-24.057 44.768-31.422 5.386-2.724 11.16-4.784 16.392-7.736 4.136-4.46 10.721-4.8 16.142-6.84 11.363-3.385 22.895-6.6 34.707-7.873 3.399-.094 6.599 1.266 10.035.976 4.45.105 8.855 1.947 11.61 5.528-.97-4.62-6.252-5.687-10.023-7.208-6.228-2.587-13.016-1.28-19.502-1.924-3.113-1.683-6.593.482-9.837.87-24.962 6.578-49.002 16.73-71.218 29.865-9.965 6.034-19.707 12.692-28.07 20.844z"
            class="region_1653" />
        <path
            d="M93.647 154.564c1.834 2.373 3.646-1.813 5.364-2.607 20.959-17.65 45.937-29.85 71.45-39.435 10.255-3.735 20.7-7.064 31.438-9.101 5.841 2.367 12.424-.23 18.391 1.77 4.119.94 7.995 2.657 11.687 4.672-2.47-5.542-7.914-9.647-14.1-9.602-7.268-.426-14.473 1.412-21.617 2.557-22.186 4.12-43.913 11.22-63.618 22.324-14.185 8.015-27.57 17.773-38.995 29.422z"
            class="region_1660" />
        <path
            d="M138.148 132.71c2.33-.667 4.816-.475 7.11.244 1.563-1.684 4.972-4.684 6.62-1.49 4.752 8.098 15.122 11.891 24.093 9.49 10.335-2.41 20.706-4.753 30.907-7.677 3.329-2.05-.71-1.785-2.524-1.003-9.995 1.918-19.77 4.91-29.802 6.592-3.964.75-8.953-.411-10.282-4.721-1.515-3.56-4.367-7.008-4.147-11.013-.176-1.286-4.087 1.533-5.638 1.909-5.458 2.525-10.978 4.95-16.337 7.668z"
            class="region_1667" />
        <path
            d="M163.092 159.771c.625 3.13 3.949.936 5.995.824 16.461-3.869 33.356-7.086 48.668-14.525 7.091-3.429 12.711-9.664 14.915-17.278.732-2.436 1.998-4.872 2.136-7.392-5.185 5.34-12.984 6.766-19.914 8.635-2.458.933-5.935.283-7.23 2.925-2.24 1.13-5.402 1.814-1.002 1.708 2.028.301 4.721.445 6.143 1.774-.43 4.214-4.647 6.987-8.08 8.917-13.566 5.612-28.19 8.479-41.63 14.412z"
            class="region_1688" />
        <path
            d="M163.945 162.437c1.284 1.548 1.54 5.874 4.304 4.167 9.777-4.144 20.085-6.734 30.427-9.024 8.68-1.915 17.613-2.902 25.95-6.182 5.38-1.476 9.813-5.605 11.367-11.003-2.042 4.325-5.262 8.406-10.04 9.887-9.583 3.87-20.033 4.688-29.964 7.366-10.562 2.186-21.117 5.758-32.044 4.789z"
            class="region_1695" />
        <path
            d="M163.877 162.17c10.852 1.403 21.452-2.521 31.977-4.602 10.481-2.826 21.583-3.541 31.567-8.024 8.08-3.638 10.633-13.505 10.072-21.659-.16-3.235-.459-6.619-1.777-9.59-1.278 6.647-3.363 13.382-7.122 19.065-7.246 9.515-19.453 12.648-30.292 16.16-11.225 3.185-22.606 5.818-34.03 8.179l-.26.309z"
            class="region_1701" />
        <path
            d="M84.35 242.067c.181 3.372 4.344 3.753 6.805 4.878 8.042 1.62 16.341 1.464 24.486 2.187 2.299-1.114 1.148-4.53 1.569-6.63.563-2.918-1.177-5.902-4.284-6.146-7.904-.954-16.194-.57-23.774 2.03-1.04 1.73-2.604 2.354-4.131 1.51a2.85 2.85 0 0 0-.671 2.171z"
            class="region_1708" />
        <path d="M85.544 239.667c1.65 2.193 3.964-1.434.62-.67-.255.141-.796.235-.62.67z" class="region_1714" />
        <path
            d="M82.681 241.701c-.145 2.009 1.27 5.106 3.505 4.258-3.53-1.444-3.38-7.413.579-8.23-.09-2.593-3.166 0-3.73 1.163-.394.871-.371 1.874-.354 2.81z"
            class="region_1719" />
        <path
            d="M83.724 242.015c-1.121 2.303 4.345 4.339 3.095 3.303-3.479-.6-3.354-6.668.346-6.512 2.016.162 4.156-1.85 6.507-1.793 6.626-1.244 13.575-1.863 20.21-.479 4.072.76 3.443 5.469 3.372 8.555.725-3.301.8-8.421-3.46-9.214-6.189-1.337-12.613-.434-18.858.09-3.721.776-8.62.724-10.954 4.144-.257.604-.315 1.257-.258 1.906z"
            class="region_1720" />
        <path
            d="M86.532 236.586c.66 2.28 3.807-.593 5.614-.257 6.042-1.106 12.275-1.122 18.334-1.229 1.79-2.163-1.954-.803-3.177-1.04-6.906.648-14.016.504-20.749 2.36z"
            class="region_1721" />
        <path
            d="M84.948 244.997c2.436 1.824 5.804 1.908 8.695 2.693 7.55.854 15.166 1.376 22.69 2.129 2.2-1.015 1.119-3.945 1.474-5.855-1.096 1.7.054 5.679-3.049 5.266-8.397-1.058-17.085-.289-25.261-2.743-1.469-.644-3.076-.876-4.55-1.49z"
            class="region_1722" />
        <path
            d="M110.584 235.183c3.105.166 7.256 1.528 6.998 5.371-.06 2.841-.045 4.854.586.855 1.069-1.74 1.075-3.788-.603-5.207-1.545-1.64-4.512-3.164-6.58-1.9-.103.275-.459.55-.401.881z"
            class="region_1723" />
        <path
            d="M83.904 246.184c6.338 3.549 13.979 2.802 20.984 3.476 4.3.222 8.679.483 12.772 1.733 1.641-1.314.764-3.211-1.368-1.478-7.392-.772-14.866-1.254-22.272-2.091-3.385-.34-6.723-2.14-10.116-1.64z"
            class="region_1727" />
        <path
            d="M116.908 249.695c2.446-.7 1.256-4.177 1.722-6.119.495-2.452.167-5.158-.558-1.267-.614 2.355.448 5.468-1.164 7.386z"
            class="region_1733" />
        <path
            d="M83.94 247.54c1.96 3.93 7.138 2.778 10.745 3.152 6.885.03 13.808.38 20.662.247-9.706-2.036-19.89-.657-29.502-3.399-.566.023-1.528-.515-1.906 0z"
            class="region_1738" />
        <path
            d="M81.9 241.18c-.59 1.523 2.864 6.364 1.287 3.22-1.357-3.024-.522-7.358 3.213-8.017 7.941-2.016 16.251-2.006 24.391-2.502 3.224-.493 6.605 1.027 8.04 4.027 1.052-1.349.78-4.596 1.48-6.667 3.129-14.757 9.117-29.553 20.547-39.85 14.817-13.384 33.343-23.904 53.624-25.207 10.638-1.108 21.448-.328 31.781 2.456 1.254-5.363-1.283-10.579-4.363-14.819-5.823.807-11.496 2.745-17.299 3.841-14 3.14-28.346 6.023-40.919 13.283-17.3 8.812-32.073 22.64-41.914 39.377-3.245 5.627-5.283 11.837-8.158 17.62-4.082 5.813-12.072 5.181-18.346 5.894-4.274.723-9.573.39-12.703 3.835-.702 1.054-.71 2.284-.662 3.51z"
            class="region_1744" />
        <path d="M226.826 168.696c1.254.724 5.073 2.005 3.409-.727-1.02-1.035-2.874-.565-3.41.727z"
            class="region_1749" />
        <path
            d="M226.512 168.641c.82-1.74 4.637-1.813 4.154.693.409 1.338 3.596 1.762 4.964 2.088.96-2.168-.459-4.282-2.698-4.652-2.063-.741-4.237-1.943-6.281-2.306.05 1.396-.107 2.794-.139 4.177z"
            class="region_1755" />
        <path
            d="M246.525 171.36c-2.075.74-5.1-1.211-6.513 1.457-1.05.412-5.174-.552-4.074-2.578.37-3.636-4.412-3.679-6.705-5.075-2.261-.48-3.71-1.888-.575-1.658 2.13-1.555-.918-4.137-1.627-5.791-2.202-2.79.818-1.175 1.954.184 5.366 5.114 11.479 9.256 17.54 13.46z"
            class="region_1760" />
        <path
            d="M254.569 180.74c-4.794-2.432-9.676-5.228-14.678-7.425.947-2.642 3.965-1.704 6.067-1.635 2.327-.132 4.043 2.615 6.035 3.747 1.726 1.174 2.264 3.378 2.576 5.313z"
            class="region_1766" />
        <path
            d="M223.188 155.569c1.556 2.39 2.815 5.046 3.398 7.836 1.772.84 3.78-.826 2.274-2.545-1.375-1.573-1.932-4.269-3.699-5.227-.642-.093-1.353-.186-1.973-.064z"
            class="region_1772" />
        <path
            d="M252.572 175.643c-7.782-6.043-16.535-10.985-23.641-17.947-1.569-1.594-3.68-2.482-5.925-2.373-2.611-2.695 2.332-1.57 3.58-.545 6.121 4.75 11.823 10.08 18.45 14.175 2.685 1.987 5.614 3.917 7.537 6.69z"
            class="region_1777" />
        <path
            d="M296.994 138.52c-.737 11.478-9.661 20.004-17.91 27-6.748 5.553-14.188 10.407-22.352 13.597.124-.797 3.831-2.238 5.184-3.452 10.522-6.932 18.005-17.74 23.038-29.121 2.378-6.147 2.685-13.528-1.437-19.034-6.381-8.947-16.965-13.363-26.71-17.621-10.92-4.203-22.175-7.51-33.528-10.326 1.482-.78 4.89-.402 7.113-.737 6.616-.345 13.226-.923 19.83-1.361 2.953 3.651 7.85 5.009 11.899 7.22 12.175 5.736 25.333 11.968 32.69 23.812 1.962 2.978 2.431 6.53 2.183 10.023z"
            class="region_1785" />
        <path
            d="M298.063 137.815c-.242 9.843-7.254 17.828-14.096 24.193-6.657 5.906-13.79 11.482-22 15.063 11.136-6.078 21.68-13.85 29.464-23.988 4.98-6.672 7.963-16.33 3.767-24.09-6.782-11.546-19.295-17.86-30.965-23.422-4.324-2.083-8.764-4-12.785-6.642.933-.957 3.89 1.908 5.615 2.356 12.426 6.254 26.145 11.415 35.469 22.217 3.39 4.012 6.072 8.88 5.531 14.313z"
            class="region_1790" />
        <path
            d="M307.451 135.16c-.175 12.465-8.463 23.322-18.572 29.907-9.082 6.274-19.269 10.84-29.57 14.717-1.478 1.114-6.403 1.297-2.919-.45 12.848-4.19 23.669-12.941 32.948-22.525 5.102-5.912 9.592-13.246 8.803-21.38-.513-7.546-6.269-13.475-11.83-18.014-10.694-8.622-23.945-12.893-35.692-19.744 5.44-.207 11.009 1.018 16.484 1.5 10.594 1.158 21.843 3.308 29.823 10.967 7.31 6.132 11.172 15.527 10.525 25.022z"
            class="region_1795" />
        <path
            d="M309.216 133.233c-.022 10.033-4.85 19.473-10.887 27.23-4.303 5.77-10.335 9.834-16.835 12.758-7.58 3.61-15.733 6.784-24.136 7.299 10.701-3.622 21.052-8.48 30.546-14.611 9.746-6.266 18.184-16.03 19.446-27.925 1.194-9.517-1.545-19.723-8.723-26.363-6.663-7.036-16.075-10.53-25.518-11.726-7.287-1.136-14.648-1.745-21.957-2.69 12.1.603 24.55 1.021 36.027 5.278 10.988 4.552 20.834 14.316 21.87 26.654.132 1.359.182 2.73.167 4.096z"
            class="region_1810" />
        <path
            d="M310.98 134.102c-.402 13.389-7.988 26.329-19.243 33.517 5.776-5.379 10.859-11.728 13.964-19.086 5.468-11.052 5.115-25.599-3.28-35.13-6.89-8.343-17.327-12.968-27.914-14.286-8.03-1.408-16.8-1.625-24.535-2.189 13.61.249 28.013-1.295 40.724 4.626 12.446 5.581 20.714 18.93 20.284 32.548z"
            class="region_1814" />
        <path
            d="M177.532 106.265c1.398 1.276 4.444-.904 6.443-.936 16.71-4.15 33.863-6.108 51.04-6.891 4.79-.317 9.59-.57 14.365-1.08-7.369-.83-14.953.22-22.383.58-16.564 1.264-33.05 3.83-49.125 8.055l-.314.252z"
            class="region_1818" />
        <path
            d="M57.912 221.568c.145 9.834 2.05 21.181 10.633 27.272 3.362 2.887 7.793 3.309 12.031 3 12.125-.08 24.296.157 36.39-.118 1.461-.568-3.936-.083-5.262-.255-12.158-.326-24.362.242-36.491-.507-7.869-1.618-13.144-8.959-14.761-16.487-5.045-20.067 1.817-41.351 13.563-57.778 9.145-12.408 20.097-23.439 31.783-33.45 16.4-13.331 35.05-23.828 54.905-31.049a302.703 302.703 0 0 1 15.686-4.974c1.801-2.13-3.589.593-4.837.602-28.666 8.398-55.62 23.284-76.848 44.439-15.12 14.508-29.506 31.34-34.744 52.112-1.406 5.63-2.068 11.392-2.048 17.193z"
            class="region_1819" />
        <path
            d="M249.036 162.493c-4.158-3.295-9.102-6.148-11.964-10.754-1.193-6.864 1.244-13.795.674-20.711.01-4.599-.65-9.244-1.976-13.607 6.963 6.493 12.486 15.11 13.006 24.847.895 6.354-.547 12.744.023 19.081l.237 1.144z"
            class="region_1822" />
        <path
            d="M259.042 149.202c-.09 5.93-.972 11.81-1.958 17.65-1.856-1.177-3.084-4.202-4.298-6.332-2.27-4.617-4.131-9.58-3.708-14.803.002-8.463-2.898-16.848-8.492-23.253-1.437-1.807-3.014-3.495-4.658-5.113 8.807 2.354 17.897 8.28 20.828 17.52 1.548 4.601 2.385 9.47 2.286 14.33z"
            class="region_1835" />
        <path
            d="M256.978 167.543c-.508 2.342-.895 4.784-1.36 7.1-.379-4.698-2.966-8.809-6.286-11.991-1.33-3.537-.362-7.502-.186-11.186 1.748 5.661 4.218 11.335 7.832 16.077z"
            class="region_1845" />
        <path
            d="M262.08 147.363c-.346 5.752-.138 12.069-3.213 17.149-2.55 2.609-.598-2.675-.663-4.136 1.548-10.852 1.773-23.075-4.977-32.336-4.313-5.903-11.326-8.71-17.853-11.316-1.043-2.004-3.13-5.81.596-3.29 8.923 3.993 18.187 9.137 22.686 18.271 2.46 4.805 3.537 10.281 3.425 15.658z"
            class="region_1851" />
        <path
            d="M261.66 123.223c-5.183.953-10.682-.898-14.76-4.184-4.374-2.741-9.139-4.814-13.743-7.086-.123-1.528-3.604-4.908-2.054-5.002 10.926 3.76 21.818 8.608 30.557 16.272z"
            class="region_1855" />
        <path
            d="M272.453 141.89c-.817 8.341-4.916 15.991-9.513 22.835-1.048 1.658-4.236 1.966-5.2.853 3.632-2.766 3.478-7.98 4.15-12.097 1.029-9.45-.185-19.812-6.709-27.2-.506-1.185-5.478-4.81-2.607-3.851a21.76 21.76 0 0 0 9.533 1.036c5.41 4.528 10.767 10.93 10.346 18.425z"
            class="region_1859" />
        <path
            d="M286.518 136.313c-4.749.656-9.39 2.255-13.934 3.44-1.36-10.018-10.075-16.702-17.94-21.944-7.563-5.046-16.139-8.306-24.592-11.46-3.021-4.29-8.233-6.28-13.346-6.33 5.957-1.729 11.824 1.307 17.586 2.568 15.006 4.369 30.384 9.116 43.074 18.558 4.576 3.753 8.969 8.984 9.152 15.168z"
            class="region_1864" />
        <path
            d="M286.643 137.35c-.268 10.16-6.515 18.813-12.321 26.673-5.048 6.566-11.755 11.81-19.154 15.434.51-4.52 1.229-9.093 2.286-13.496 3.24 1.45 6.225-.972 7.44-3.871 3.858-6.756 7.631-13.995 7.766-21.96 4.428-1.759 9.087-2.929 13.79-3.682.347.222.18.587.193.902z"
            class="region_1868" />
        <path
            d="M82.278 235.352c8.433-4.72 18.95-1.708 27.385-6.262 4.668-3.476 5.089-9.91 7.79-14.732 8.845-19.115 24.676-34.735 43.31-44.365 3.115-1.97 6.861-1.766 10.017-3.578 11.456-5.15 23.937-7.143 36.035-10.202-6.696.682-13.296 2.762-19.882 4.287-8.511 1.892-16.43 5.616-24.709 8.233-12.975 6.17-24.29 15.52-33.384 26.61-7.1 8.458-11.946 18.486-15.923 28.711-1.849 5.87-8.732 6.881-14.008 7.366-5.582.65-11.942.388-16.631 3.932z"
            class="region_1884" />
        <path
            d="M79.868 241.392c-.638 1.731 3.872 5.145 2.652 3.467-2.165-2.868-2.336-8.438 1.91-9.488 7.424-2.94 15.696-1.397 23.202-3.802 3.801-1.17 6.095-4.592 7.056-8.281 6.794-18.203 19.363-33.996 35.233-45.139 5.242-3.799 10.878-7.008 16.64-9.944-4.506.318-8.318 3.439-12.236 5.481-18.417 11.346-33.319 28.788-40.34 49.37-1.238 4.478-5.217 7.654-9.807 8.095-7.412 1.635-15.722.443-22.378 4.681a6.878 6.878 0 0 0-1.932 5.56z"
            class="region_1885" />
        <path
            d="M81.117 240.085c-.412 1.417 1.71 5.9 1.658 4.571-1.909-3.282-1.221-8.578 3.142-9.296 7.914-2.672 16.825-.648 24.393-4.445 5.16-2.953 5.417-9.625 8.23-14.326 7.164-15.783 19.445-28.85 33.46-38.83 6.732-4.412 13.823-8.309 21.05-11.833 12.814-5.257 26.61-7.29 39.91-10.922-10.176 2.05-20.304 4.634-30.388 7.175-28.263 8.564-53.778 28.597-65.678 56.024-2.38 4.431-2.774 10.703-8.015 12.883-6.944 3.065-14.88 1.397-22.074 3.603-2.71.626-6.116 1.99-5.688 5.396z"
            class="region_1887" />
        <path
            d="M169.418 167.816c17.317-7.906 36.594-9.468 54.607-15.192 4.9-1.429 9.691-4.241 11.638-9.215 1.53-3.272 2.174-6.98 1.898-10.572-.396 7.218-3.492 15.406-10.925 17.91-17.707 6.895-37.097 8.275-54.605 15.74-.874.433-1.847.708-2.613 1.33z"
            class="region_1888" />
        <path
            d="M253.459 168.135c-6.936-3.89-15.076-6.93-19.89-13.622-1.224-2.459-2.224-5.965.32-7.913 1.668-2.248 2.689-4.888 3.406-7.562-.062 4.509-1.857 9.524.252 13.761 4.39 5.97 12.358 8.68 15.912 15.336z"
            class="region_1889" />
        <path
            d="M225.429 152.323c5.696 2.998 9.737 8.485 15.246 11.624 2.526-2.235-.963-3.163-2.406-4.532-3.745-2.288-6.288-6.314-6.173-10.74-1.92 1.714-4.412 2.583-6.667 3.648z"
            class="region_1891" />
        <path
            d="M250.926 167.07c-.462 3.124-3.66-.535-5.443-.605-1.241-.948-5.245-1.259-4.263-3.206 1.006-2.65 3.753 1.294 5.592 1.477 1.276.833 3.104 1.296 4.114 2.334z"
            class="region_1892" />
        <path d="M254.611 170.842c-1.178-1.065-5.254-1.394-3.626-3.685 1.641.298 3.448 1.717 3.626 3.685z"
            class="region_1893" />
        <path
            d="M221.985 153.475c5.668-.138 9.005 5.297 13.24 8.22 1.588.852 3.683 3.865 5.111 3.216.17-2.033-3.488-2.732-4.638-4.426-3.407-2.843-6.546-6.334-10.65-8.109-1.007.388-2.106.622-3.063 1.099z"
            class="region_1895" />
        <path
            d="M255.125 172.697c-4.035-2.235-8.588-3.705-12.743-5.742-2.551-.477-2.367-3.952.14-1.72 4.121 2.045 8.962 3.374 12.376 6.372.049.36.262.748.227 1.09z"
            class="region_1896" />
        <path
            d="M255.445 175.376c-.156 1.194-.453 7.26-1.138 3.562-1.343-5.08-6.332-7.698-10.021-10.83 3.798 1.265 7.726 2.855 11.002 5.101.163.714.16 1.44.157 2.167z"
            class="region_1897" />
        <path
            d="M128.69 224.092c.278 4.407 6.018 4.33 8.907 2.542 2.473-.733 4.65-1.905 5.311-4.583 6.347-11.448 15.896-20.933 26.48-28.505 12.865-8.117 27.807-13.821 43.206-13.455 11.248-.185 22.49.381 33.691 1.375-6.633-2.284-14.167-.835-20.684-3.464-4.763-4.396-11.231-6.035-17.57-6.156-13.486-.88-27.688.315-39.691 7.033-11.265 5.68-21.513 13.545-29.567 23.271-4.345 6.278-9.006 12.93-10.107 20.654l.025 1.288z"
            class="region_1901" />
        <path
            d="M119.833 248.13c1.44-3.32 3.267-7.832 7.653-7.654 3.279-.23 6.656.136 9.874-.035.74-5.175 2.107-10.299 3.884-15.165-4.786 2.27-10.2 3.466-14.489 6.648-4.548 4.102-5.588 10.528-6.922 16.205z"
            class="region_1903" />
        <path
            d="M120.301 244.378c1.87-5.49 3.542-12.243 9.6-14.572 2.43-.868 4.693-2.048.754-2.343-3.543-1.946-1.917-6.836-.879-9.884 3.887-10.09 10.598-18.915 18.913-25.782 8.529-7.498 18.575-13.307 29.196-17.273 12.176-3.505 25.218-3.998 37.682-1.93 3.327.743 6.497 2.236 9.105 4.444.947-2.616.579-4.685-2.647-4.352-10.017-2.025-20.282-2.736-30.473-2.218-14.531 1.04-28.103 7.752-39.608 16.374-11.4 8.7-20.046 20.705-25.063 34.114-3.566 7.35-5.504 15.36-6.58 23.422z"
            class="region_1904" />
        <path
            d="M118.462 251.771c1.396-1.993.92-4.728 1.505-7.043-1.56 1.089.137-3.878-.008-5.241-.052-1.57 1.678-6.985 1.19-2.935-.37 2.666-1.18 5.308-1.177 7.998 1.322-8.606 3.401-17.117 7.227-24.98 4.104-10.236 10.04-19.793 18.207-27.285 10.092-9.771 22.787-16.95 36.373-20.507 11.141-2.547 22.77-1.994 34.008-.408 3.2.565 6.386 1.219 9.607 1.653.705-1.943 1.73-4.886-1.433-4.799-14.61-3.56-30.099-2.911-44.63.712-15.639 4.808-29.839 13.952-41.364 25.492-10.988 11.6-16.234 27.414-18.57 42.932-.626 4.78-.904 9.592-.935 14.411z"
            class="region_1905" />
        <path d="M119.668 243.401c.831-2.612 1.266-5.968 1.596-8.885-1.108 2.439-1.397 6.028-1.596 8.885z"
            class="region_1906" />
        <path d="M119.293 245.165c1.363-.28-.19-2.719 0 0z" class="region_1907" />
        <path
            d="M127.748 248.995c.318 2.64 3.265 1.595 4.725.49 2.456-2.115 4.805-5.345 4.657-8.601-3.69 2.112-5.277 6.76-9.382 8.11z"
            class="region_1915" />
        <path
            d="M119.251 251.34c2.033.323 2.651-2.368 4.788-1.9 3.918.014 7.313-2.195 9.353-5.456.376-1.314 5.506-3.551 2.267-3.327-3.91.027-8.284-.887-11.87 1.082-2.455 2.52-3.936 6.18-4.538 9.602z"
            class="region_1916" />
        <path
            d="M121.337 250.833c2.249-.062 5.04.415 7.04-.293-.577-2.693-3.613-.667-5.439-.84-.666.082-1.351.498-1.601 1.133z"
            class="region_1917" />
        <path
            d="M128.847 251.778c2.412.018 5.21.288 7.446-.123-.04-2.472.544-5.435.41-7.608-1.455 3.578-4.39 6.207-7.856 7.731z"
            class="region_1918" />
        <path
            d="M118.985 251.77c3.243-.051 6.748.454 9.896-.276 3.229-1.292-.978-.483-2.248-.535-2.522.248-5.319-.293-7.648.81z"
            class="region_1919" />
        <path
            d="M225.05 176.573c.244 2.925 2.944.54 3.61-.862 1.145-1.178-3.257-3.324-3.344-1.618-.156.812-.326 1.652-.265 2.48z"
            class="region_1921" />
        <path d="M228.119 169.578c.335 1.531 4.474 2.515 2.098.332-.487.1-2.01-1.044-2.098-.332z" class="region_1922" />
        <path
            d="M250.433 181.517c-3.738.51-7.34-1.57-11.132-1.508-4.368-.326-8.982-.438-13.107-1.81 2.224-.634 2.249-4.141 4.81-3.335 3.799-.18 7.523 1.696 11.171 2.72 1.706.633 5.612 1.797 5.914 2.285-5.871-1.594-11.674-4.005-17.822-4.258-3.096 1.875 1.146 3.667 3.147 3.235 5.71.535 11.485 1.152 17.019 2.67z"
            class="region_1924" />
        <path
            d="M251.99 181.361c-3.844-.113-7.677-1.587-11.581-1.873-3.04-.503-6.254-.456-9.219-1.041 6.59-1.881 13.005 2.06 19.553 2.351.374.223.94.273 1.247.563z"
            class="region_1925" />
        <path
            d="M250.174 180.598c-6.42-.27-12.85-4.235-19.329-2.136-2.873-.04-1.312-3.92.954-2.734 6.29.893 12.35 3.122 18.375 4.87z"
            class="region_1926" />
        <path d="M226.403 172.966c1.153 1.75 4.989 2.822 6.07.69-1.012-1.867-4.604-2.866-6.077-1.094l.006.403z"
            class="region_1927" />
        <path
            d="M225.58 173.123c.92.107 1.789-2.596 4.031-1.418 2.93-.177 2.203 2.994 3.709 3.183 1.767 1.001 5.141 1.006 3.461-1.469-2.71-1.274-5.799-1.785-8.393-3.14-1.476-3.276-2.684.257-2.675 2.234.126.202-.228.408-.132.61z"
            class="region_1929" />
        <path
            d="M230.466 170.201c1.46 2.123 4.682 2.222 6.89 3.3.613-2.028-3.293-1.742-4.544-2.692-.668-.086-1.834-1.018-2.346-.608z"
            class="region_1930" />
        <path
            d="M254.336 181.055c-3.343.769-6.286-1.949-9.492-2.64-2.546-1.088-5.633-1.618-7.93-2.831-.077-3.58 3.446-.27 5.251-.054 4.16 1.585 8.07 3.841 12.17 5.525z"
            class="region_1931" />
        <path
            d="M253.672 180.616c-5.38-2.36-10.75-5.025-16.208-7.107.83-1.977 4.024 1.302 5.7 1.492 3.572 1.713 7.186 3.518 10.508 5.615z"
            class="region_1935" />
        <path
            d="M141.982 224.446c6.4-3.737 13.143-7.368 18.073-13.055 7.247-7.303 15.536-13.613 24.405-18.813 8.513-4.75 18.233-6.225 27.394-9.177 2.017-.802 4.883-1.397 5.987-3.186-10.186-.237-20.558.585-30.085 4.478-17.58 6.038-32.533 18.567-42.63 34.044-1.094 1.867-2.372 3.681-3.144 5.709z"
            class="region_1938" />
        <path
            d="M157.527 214.437c7.569-4.357 14.308-10.169 21.494-15.168 7.603-5.722 16.234-9.824 25.06-13.264-8.025 1.505-16.012 4.514-23.029 8.837-8.46 5.73-16.77 11.883-23.525 19.595z"
            class="region_1939" />
        <path
            d="M140.37 240.69c2.796.29 5.619 2.268 8.339 1.67 3.258-2.421 3.904-6.771 5.135-10.303 2.43-1.05.7 3.611.818 5.135 1.772-4.064 3.203-8.797 5.458-12.856 9.717-18.136 27.77-31.016 47.334-36.663 12.909-3.355 26.292-4.148 39.486-5.743-5.059-1.057-10.55-.918-15.787-1.378-4.235-.11-8.67-.624-12.791-.08-5.022 3.517-11.37 4.264-16.882 6.81-11.752 4.206-21.945 11.534-31.759 19.068-8.35 6.231-17.159 11.814-25.922 17.439 2.54-.528 6.801-2.18 7.782 1.447 1.33 5.507-.18 13.345-6.517 14.825-1.552.293-3.131.413-4.695.63z"
            class="region_1941" />
        <path
            d="M148.298 242.894c1.846.181 4.201 3.304 5.105 2.832.376-3.561 1.24-7.022 1.346-10.586.893-1.008.172-5.126-1.085-2.642-.793 3.762-2.03 8.161-5.366 10.396z"
            class="region_1942" />
        <path
            d="M137.18 243.42c.3 3.361 2.148 6.504 5.47 7.602 3.186 1.522 6.928.601 10.333.755-3.675-3.047-8.091-5.63-11.976-8.6-1.334-1.844-2.74-.354-3.826.243z"
            class="region_1945" />
        <path
            d="M139.309 240.812c-.013 2.349 3.294 2.756 4.648 4.34 2.963 2.062 5.878 4.324 8.994 6.088-.008-2.112 1.32-5.04-1.199-6.24-3.566-2.627-8.223-3.432-12.436-4.253z"
            class="region_1946" />
        <path
            d="M136.463 251.803c2.426.001 5.52.21 7.595-.097-3.374-1.037-6.467-3.487-6.76-7.238-.672-1.295-.549 3.828-.786 4.912-.029.8-.148 1.637-.049 2.423z"
            class="region_1947" />
        <path
            d="M139.283 232.198c2.511-.115 5.085-.073 7.584-.345 1.926-3.193-.262-3.439-3.026-2.795-2.357-.088-4.748-.01-4.593 3.015z"
            class="region_1951" />
        <path
            d="M138.234 236.834c2.506-.046 5.136-.043 7.602-.275.03-1.752 2.268-5.408-1.065-4.351-1.87.653-5.763-1.197-5.963 1.603-.172.997-.548 2.03-.574 3.023z"
            class="region_1952" />
        <path d="M142.188 238.91c1.738.922 5.336-1.452 2.589-2.082-1.95.152-3.145-.541-2.589 2.082z"
            class="region_1953" />
        <path d="M143.4 228.852c1.61 1.086 5.556-1.631 2.548-1.777-1.37.088-2.86-.135-2.547 1.777z"
            class="region_1954" />
        <path
            d="M146.855 228.664c2.107-.163 1.77-3.7 2.953-5.2-1.644-1.202-1.796 2.91-2.589 3.973-.071.402-.406.82-.364 1.227z"
            class="region_1955" />
        <path d="M137.819 239.175c1.736.052 5.535.39 3.855-2.208-1.84.208-4.441-.749-3.856 2.208z"
            class="region_1956" />
        <path
            d="M143.81 227c2.526.482 4.27-.49 4.584-3.119.72-1.68-4.433-.698-4.05 1.225-.152.632-.46 1.253-.534 1.894z"
            class="region_1957" />
        <path
            d="M140.168 229.046c2.641.768 3.587-.99 3.77-3.328 1.977-2.863-2.304-1.299-2.676.218-.386 1.025-.834 2.052-1.094 3.11z"
            class="region_1958" />
        <path
            d="M137.549 240.507c2.521-.11 5.584.137 7.824-.917-.654-1.586-4.425.126-6.218-.22-.915.08-1.842-.21-1.606 1.137z"
            class="region_1959" />
        <path d="M151.052 226.182c.718 2.655.906-1.355 0 0z" class="region_1961" />
        <path
            d="M146.727 233.452c2.273 1.57 2.925-.836 4.855-1.383.477-2.06.553-4.323-.742-6.04.666-2.799-1.502-3.134-1.822-.168-.829 2.496-1.902 4.994-2.29 7.591z"
            class="region_1962" />
        <path
            d="M145.573 239.631c1.374-.15 4.26-1.64 3.785-3.28.573-2.004-2.87-4-3.029-1.38-.3 1.545-.63 3.09-.756 4.66z"
            class="region_1963" />
        <path d="M149.227 235.29c.56 3.213 2.166-1.811 2.25-2.923-1.418.073-2.42 1.58-2.25 2.923z"
            class="region_1964" />
        <path d="M151 225.713c1.134-.336-.472-1.972 0 0z" class="region_1965" />
        <path d="M137.247 242.832c2.012.802 3.019-3.21.348-2.102-.336.443-.383 1.503-.348 2.102z" class="region_1966" />
        <path
            d="M191.957 218.557c8.796-4.177 18.862-3.815 28.359-3.94-2.932-3.02-5.225-7.053-4.62-11.455-.298-2.058-3.943.968-5.577 1.324-7.148 3.09-13.124 8.275-18.162 14.071z"
            class="region_1972" />
        <path
            d="M191.928 219.131c9.854-1.276 19.792-2.354 29.737-2.125 3.647.697-.507-2.187-1.996-2.117-8.48-.068-17.321-.106-25.347 2.955-.77.446-1.793.624-2.394 1.287z"
            class="region_1973" />
        <path
            d="M224.124 208.736c.361 2.306 2.007 4.432 3.687 5.879 2.242-.262 5.007-1.44 6.855.379 3.881-1.085 8.321-1.714 11.864-3.076-4.826-5.046-12.225-8.405-19.17-5.988-1.255.598-3.295 1.046-3.236 2.806z"
            class="region_1975" />
        <path d="M227.883 214.867c1.428 2.25 4.227.515 6.232.192-1.37-1.823-4.373-.394-6.232-.192z"
            class="region_1976" />
        <path
            d="M215.94 205.809c.409 3.535 2.477 7.374 5.732 8.942 1.477-.2 6.787.989 4.432-1.54-1.586-1.797-3.721-5.546-.41-6.782 7.166-3.572 15.823-.306 20.948 5.309.099-.902-2.524-3.064-3.558-4.36-3.411-4.182-8.317-7.53-13.963-6.947-4.3-.15-8.845.128-12.871 1.723-.51 1.112-.286 2.46-.31 3.655z"
            class="region_1977" />
        <path
            d="M221.425 215.097c1.545 1.377 3.253 2.558 5.338 1.524 3.847.187.49-2.699-1.537-1.643-1.261.031-2.59.011-3.8.119z"
            class="region_1978" />
        <path d="M229.37 216.563c.776 1.808 4.093-.29 5.816-.161-.829-2.334-4.115-.127-5.819.053z"
            class="region_1981" />
        <path
            d="M257.33 206.407c-.573 4.307-5.619 5.689-9.108 6.964-4.26 1.095-8.675 2.483-12.98 2.83-1.48-2.144 3.712-1.41 5.007-2.353 5.222-1.58 11.403-1.912 15.454-5.931 1.15-.983 1.107-5.932 1.626-1.51z"
            class="region_1982" />
        <path d="M224.7 217.266c.993.886 4.991 1.023 4.513-.726-1.324-.167-3.115.48-4.513.726z" class="region_1983" />
        <path
            d="M261.03 202.936c-1.29 1.972-2.45 4.216-4.254 5.717 1.076-1.778.859-4.204-.826-5.484 1.69.256 3.588.35 5.08-.233z"
            class="region_1984" />
        <path
            d="M250.437 202.087c-1.56 1.856-3.954 3.502-6.29 3.855-1.304-1.553-4.35-4.192-.33-3.671 2.196-.16 4.435-.432 6.62-.184z"
            class="region_1987" />
        <path
            d="M256.708 204.988c-.584 4.22-6.75 5.791-9.5 2.555-3.044-1.506-.725-2.384 1.135-3.388 1.63-2.356 3.847-2.082 6.322-1.256.991.231 2.301.845 2.043 2.089z"
            class="region_1988" />
        <path
            d="M255.927 207.378c-1.506 2.302-4.521 3.496-7.048 3.948-1.413-1.743-3.25-3.29-4.41-5.143 1.8-.649 2.866 2.514 4.758 2.8 2.312 1.314 5.067-.299 6.7-1.605z"
            class="region_1989" />
        <path
            d="M263.5 196.222c-2.623 1.599-6.224 1.049-9.218 1.878-1.73.416-4.638.835-4.846 2.966 1.575 1.666-3.277.395-4.457.987-1.997.225-4.648.952-5.005-1.849-.831-3.454 2.795-5.315 5.735-5.188 5.893-.367 12.161-.08 17.79 1.206z"
            class="region_1990" />
        <path
            d="M263.523 195.85c-8.291-1.261-16.776-1.636-25.052.026-7.641.976-15.07 3.125-22.24 5.894-.06-2.329.835-4.936 3.594-4.937 12.65-3.761 26.234-4.846 39.246-2.48 1.438.505 3.26.611 4.452 1.497z"
            class="region_1996" />
        <path
            d="M218.09 201.231c6.798-1.174 14.768-2.535 20.774 1.806 3.71.025.62-2.05.909-4.09-.495-1.633 2.84-3.538 2.059-3.424-8.12.984-16.135 2.687-23.742 5.708z"
            class="region_1997" />
        <path
            d="M248.815 211.508c-2.146 1.064-3.128-2.221-4.646-3.243-3.148-2.057.687-2.739 1.542-.31.947 1.25 2.269 2.261 3.104 3.553z"
            class="region_1998" />
        <path d="M244.072 206.127c-2.242 1.017-3.395-2.025-4.953-3.013 2.67-1.727 3.387 1.56 4.953 3.013z"
            class="region_1999" />
        <path
            d="M174.697 219.114a323.183 323.183 0 0 1 25.982-9.49c-1.033-1.924-2.03-4.5-4.622-3.768-2.137-.02-2.599-3.79-4.481-.996-5.764 4.582-11.953 8.733-16.879 14.254z"
            class="region_2003" />
        <path
            d="M174.757 219.383c6.097-.361 12.719-.329 18.124-3.517 2.587-1.766 5.258-3.706 7.444-5.835-8.728 2.498-17.297 5.674-25.568 9.352z"
            class="region_2005" />
        <path
            d="M174.76 219.59c5.395.468 10.92.07 16.308-.327 1.472-1.826 3.238-3.52 4.737-5.254-5.838 5.072-13.77 5.067-21.045 5.58z"
            class="region_2006" />
        <path
            d="M174.106 219.177c3.123-2.623 6.187-6.005 9.713-8.432 2.967-2.583 6.61-4.733 9.268-7.447-.503-3.78-2.608-.07-4.354.937-5.083 4.32-11.115 8.046-14.466 13.977-.022.323-.3.63-.16.965z"
            class="region_2007" />
        <path
            d="M172.032 220.954c3.487 1.361 7.487-.336 11.143-.513 1.206-.238 7.374-.85 3.798-.73-4.382.204-8.93.346-13.201.103-.559.386-1.303.637-1.74 1.14z"
            class="region_2008" />
        <path
            d="M171.797 220.544c2.222.162 2.17-2.313 3.201-3.83 4.65-6.39 11.686-10.419 17.36-15.77-1.017-.207-3.684 2.234-5.215 3.078-5.583 4.352-11.97 8.557-15.11 15.118-.194.45-.22.922-.236 1.404z"
            class="region_2009" />
        <path
            d="M198.356 205.773c1.448 1.266 2.117 5.56 4.27 2.677 4.069-2.921 8.868-4.771 13.356-6.722.551-2.323 1.918-5.252-1.587-3.072-5.462 2.092-10.907 4.378-16.039 7.117z"
            class="region_2010" />
        <path
            d="M194.005 199.727c8.796-2.036 17.048-6.188 26.022-7.696 10.2-1.983 20.58-3.767 31-3.558 2.533.23 4.955 1.088 7.313 1.934-8.126-4.256-17.606-1.88-26.264-1.113-13.1 1.59-26.434 3.87-38.071 10.433z"
            class="region_2012" />
        <path
            d="M207.865 197.472c9.032-1.428 17.646-4.908 26.741-6.168 3.978-.786 8.074-1.112 12.042-1.779-11.174.753-22.385 2.267-33.152 5.387-1.92.72-3.926 1.44-5.631 2.56z"
            class="region_2014" />
        <path
            d="M198.205 202.125c3.52 1.584 6.413-1.467 9.584-2.489 14.301-5.43 29.464-9.255 44.825-9.53 2.827-.21 5.728 1.09 8.137 1.955-6.876-4.214-15.096-2.25-22.552-1.228-9.413 1.254-18.481 4.117-27.68 6.329-4.483.48-8.365 2.972-12.314 4.963z"
            class="region_2015" />
        <path
            d="M194.81 199.864c1.64 1.742 3.725 2.813 5.737.92 6.779-3.307 13.512-7.019 21.104-8.041 10.407-1.983 21.03-3.807 31.646-3.276 2.297.114 4.389 1.205 6.525 1.86-8.452-4.731-18.38-2.252-27.446-1.313-11.285 1.37-22.314 4.283-32.915 8.36-1.518.589-3.164.849-4.65 1.49z"
            class="region_2016" />
        <path
            d="M191.437 219.495c5.532.402 11.132-.553 16.697-.633 5.514-.506 11.053.506 16.506-.758 2.087-.858-3.304-1.068-4.389-.894-9.667-.263-19.287.833-28.814 2.285z"
            class="region_2017" />
        <path
            d="M192.594 219.844c7.781.845 15.627-.598 23.425-.531 4.206-.451-1.423-.534-2.761-.558-6.884.318-13.825.71-20.664 1.089z"
            class="region_2018" />
        <path
            d="M164.934 225.1c2.186-1.252 4.284-2.667 6.426-3.997-2.542-.165-.723-3.468.27-4.584 7.714-8.757 17.905-15.07 28.456-19.86 13.789-5.91 28.943-7.205 43.71-8.7 6.908-.61 15.133.471 19.394 6.604.978-.6-.871-3.407-1.934-4.313-6.055-5.128-14.6-3.177-21.802-2.625-15.873 1.762-32.245 3.663-46.454 11.53-3.058 1.603-5.487 3.178-8.353 4.913-7.864 5.177-14.915 11.824-19.577 20.07l-.136.961z"
            class="region_2020" />
        <path
            d="M170.183 220.43c2.011 1.98 1.328-2.114 2.569-3.066 3.919-5.958 10.028-10.141 15.54-14.36-6.375 4.179-13.02 8.578-17.46 14.902-.326.815-.794 1.609-.65 2.524z"
            class="region_2021" />
        <path
            d="M165.03 225.38c3.423 1.463 7.396-.344 11.003-.524 12.572-1.96 25.241-3.249 37.803-5.251-7.762-.263-15.686 1.585-23.327-.02-5.857.55-11.698 2.164-17.581 1.922-2.183-1.055-4.035 1.813-6.065 2.546-.586.463-1.355.75-1.833 1.327z"
            class="region_2022" />
        <path
            d="M192.507 201.596c.57 2.81 3.338 5.279 6.235 3.842 1.244-.542 5.947-2.8 2.085-1.604-2.877 1.01-5.877-.206-7.345-2.856-.563-1.318-1.091-.144-.975.618z"
            class="region_2025" />
        <path
            d="M193.086 200.294c1.504 2.62 4.277 4.553 7.38 3.492 1.925-.404 5.062-1.23 1.246-1.01-2.866.254-5.171-1.43-7.361-2.895-.41-.046-1.05.05-1.265.413z"
            class="region_2026" />
        <path
            d="M201.772 202.64c4.487.296 8.289-2.844 12.48-4.05 1.517.29 5.504-3.079 2.106-1.886-5.044 1.51-9.957 3.416-14.586 5.936z"
            class="region_2027" />
        <path
            d="M261.858 193.134c-7.551-3.714-16.262-1.508-24.151-.241-6.77 1.312-13.652 2.255-20.2 4.535.818-2.402 4.431-1.928 6.472-2.931 10.24-2.503 20.822-4.79 31.407-4.072 2.232.608 4.708 1.158 6.472 2.71z"
            class="region_2028" />
        <path
            d="M263.469 195.486c-8.738-2.956-18.176-2.741-27.265-2.071 7.296-1.553 15-3.075 22.416-1.479 1.902.692 4.32 1.316 4.849 3.55z"
            class="region_2029" />
        <path
            d="M158.163 229.378c16.475-3.252 33.172-5.248 49.677-8.367l7.143-1.305c-15.396 2.077-30.856 4.036-46.24 6.333-1.96.594-5.391-.427-3.28-2.842 6.15-10.281 15.846-17.899 26.29-23.482.44-3.046-3.24-2.254-4.753-.578-11.96 7.328-22.728 17.457-28.837 30.241z"
            class="region_2031" />
        <path
            d="M261.422 197.219c-3.518 1.28-8.004 1.308-10.616 4.207-2.218.992-.787-2.912 1.184-2.646 3.06-.89 6.298-1.127 9.432-1.561z"
            class="region_2033" />
        <path
            d="M263.444 196.738c.02 2.299-1.671 4.944-4.14 3.528-1.64-.712-5.804-1.36-1.85-1.86 1.957-.444 4.33-1.183 5.99-1.668z"
            class="region_2036" />
        <path
            d="M260.299 200.87c-1.052 1.941-1.916 3.063-4.37 2.15-1.237-.75-6.043-.048-4.727-2.056 1.997-1.747 4.732-2.314 7.11-.948.645.265 1.476.393 1.987.855z"
            class="region_2037" />
        <path d="M262.341 200.406c.242 1.515-3.59 4.27-2.943 1.767.468-1.06 1.827-1.963 2.943-1.767z"
            class="region_2038" />
        <path
            d="M190.697 197.12c1.415 1.715 3.898-1.562 5.787-1.794 14.182-7.146 30.31-7.972 45.792-9.832 5.038.024 10.732-1.806 15.272 1.1.898.854 4.895 5.143 3.849 2.961a9.777 9.777 0 0 0-9.912-5.425c-12.017.19-23.948 2.213-35.835 3.886-8.714 1.713-17.233 4.71-24.953 9.104z"
            class="region_2040" />
        <path
            d="M191.475 198.195c1.225 2.462 3.683-.887 5.497-1.103 15.372-7.281 32.623-8.498 49.293-10.255 4.337-.408 8.969-.09 12.906 1.543-3.612-4.815-10.187-2.905-15.294-2.876-10.432 1.105-20.945 2.04-31.202 4.292-7.407 1.753-14.785 4.331-21.2 8.399z"
            class="region_2041" />
        <path
            d="M179.65 250.764c4.883.354 10.017.282 14.674-1.335 2.65-2.994 7.28-2.601 9.973.099 2.046 1.373 4.377 2.005 1.045.081-2.444-2.902-6.75-4.133-10.056-1.886-4.98 1.78-10.467 2.256-15.635 3.041z"
            class="region_2045" />
        <path d="M178.746 251.036c1.894.948 5.14-.024 1.206-.12-.337.043-1-.283-1.206.12z" class="region_2050" />
        <path d="M182.248 251.436c4.694.893.843-1.338 0 0z" class="region_2051" />
        <path
            d="M184.807 251.121c4.771.485 9.295-1.065 13.678-2.7 3.228-.676 5.86 2.536 8.87 2.724-3.515-1.04-6.364-5.125-10.415-3.324-2.242 1.714-4.8 2.851-7.691 2.9-1.467.24-2.992.178-4.442.4z"
            class="region_2053" />
        <path
            d="M184.707 251.388c4.48.494 8.898-.612 13.136-1.97 3.42-.898 6.303 1.978 9.588 1.948-3.65-.642-6.908-4.428-10.758-2.3-3.74 1.958-7.894 2.14-11.966 2.322z"
            class="region_2054" />
        <path
            d="M177.138 251.802c2.393-.014 5.056.25 7.312-.125-2.08-.056-4.441-.232-6.41-.425-.234.213-.822.196-.902.55z"
            class="region_2056" />
        <path
            d="M191.503 251.35c4.777.163 9.993.122 14.515.04-3.312-1.133-6.812-2.923-10.31-1.272-1.364.513-2.838.828-4.205 1.231z"
            class="region_2057" />
        <path
            d="M184.64 251.794c7.591.132 15.223-.004 22.817-.047-7.204-.412-14.982-.057-22.406-.174-.085-.045-.572-.007-.411.22z"
            class="region_2058" />
        <path
            d="M174.48 251.803c2.648.577 4.68-1.78 7.375-1.488 4.477-.658 9.144-1.117 13.369-2.736.623-2.103-2.777.858-3.97.571-5.477 1.455-11.156 1.898-16.782 2.182-.061.477-.081.998.008 1.471z"
            class="region_2059" />
        <path
            d="M207.688 251.718c2.61.994 1.84-3.088 4.665-2.944-1.496.325-4.556-2.823-4.428-.413-.025 1.122-.172 2.243-.237 3.357z"
            class="region_2060" />
        <path
            d="M209.733 251.751c2.897.13 5.564-1.615 8.558-1.503 5.102-.135 10.568-.78 15.355 1.323 1.46.518 6.082.563 2.793-1.343-5.734-2.82-12.43-2.293-18.644-2.175-2.623.403-5.929.291-7.847 2.346-.086.434-.36.906-.215 1.352z"
            class="region_2061" />
        <path d="M157.267 244.409c.406 2.431 4.113 1.111 2.277-.853-.758-1.165-2.752-.714-2.277.853z"
            class="region_2063" />
        <path
            d="M177.503 249.973c3.73.47-.181-1.033 2.23-2.038 2.998.445 2.795-2.682.592-3.557-1.548-1.862 1.908-3.493 1.896-4.202-2.216-.221-5.92-1.89-4.76 1.896.03 2.63-.06 5.281.042 7.9z"
            class="region_2064" />
        <path d="M160.748 246.76c.498 2.114 4.915.937 2.596-.798-.803-.538-2.852-.684-2.596.799z" class="region_2065" />
        <path d="M160.169 251.716c1.165-.002 6.058.976 4.019-1.174-1.25-.33-3.813-.612-4.02 1.174z"
            class="region_2066" />
        <path
            d="M243.245 248.696c-.302 3.207-.843-2.834-2.036-3.522-1.047-2.083-3.513-2.506-5.503-3.102-1.918-2.625 1.875-2.67 3.348-1.47 2.788 1.637 4.215 4.953 4.19 8.094z"
            class="region_2068" />
        <path
            d="M242.836 250.3c-2.036.798-1.67-3.011-3.755-3.312-1.258-1.155-5.554-.25-3.332-2.652-.846-3.138 2.35-1.562 3.907-.702 1.956 1.541 2.947 4.26 3.18 6.665z"
            class="region_2069" />
        <path
            d="M241.513 250.452c-3.259.485-6.13-1.661-8.948-2.732.82-2.134 3.413-1.882 5.22-1.126 1.92.384 3.326 2.023 3.728 3.858z"
            class="region_2070" />
        <path d="M154.198 251.809c1.903.7 4.33-.882 5.35.012-.198-1.708-5.236-1.995-5.35-.012z" class="region_2071" />
        <path
            d="M153.309 249.628c.708 2.71 1.82.065 4.097.712 2.235.656 2.272 1.718 4.006-.083 2.203-1.515 3.542 2.324 4.41.708 3.594-1.24 7.75-.364 11.407-1.115-.052-3.473.268-7.139-.188-10.492-7.094-1.182-14.301-2.46-20.935-5.3-1.774 4.976-2.622 10.305-2.797 15.57m1.546-9.28c-.099-2.532 3.411-1.637 2.82.55-.259 2.25-2.963 1.297-2.82-.55zm2.178 3.786c.16-3.169 4.675-.12 2.649 1.63-1.143.729-2.457-.51-2.65-1.63zm2.573-3.207c.547-3.56 5.44-3.032 7.992-2.138 2.366.688 6.46 3.389 4.148 6.105-3.78 2.36-9.631.597-11.94-3.112l-.2-.855zm.931 5.428c.677-2.378 5.346.116 2.964 1.611-1.162.382-2.931-.2-2.964-1.61zm4.88 1.078c.286-1.868 4.92-.397 2.448.688-.786.102-2.215.403-2.448-.688zm4.074-.104c.892-1.28 4.508-1.274 4.767.333-1.315.846-3.71.897-4.767-.333zm3.82-2.598c-.252-2.622 4.065-.888 1.948.755-.672.452-1.82.096-1.947-.755z"
            class="region_2072" />
        <path d="M158.718 251.84c1.288.293-.02-1.262 0 0z" class="region_2073" />
        <path d="M173.475 244.666c1.039 2.743 3.745-1.685.642-1.06-.442.042-.723.665-.642 1.06z" class="region_2074" />
        <path d="M155.06 240.661c.31 2.59 3.588.898 2.216-1.042-.861-1.5-2.49-.39-2.215 1.042z" class="region_2075" />
        <path d="M169.673 247.387c.867.836 4.547 1.18 4.285-.305-1.17-.408-3.51-.879-4.285.305z" class="region_2076" />
        <path
            d="M246.624 251.756c-2.88.017-5.854.141-8.695-.07-1.33-2.026 3.654.262 5.066-.4 1.161.129 2.629-.081 3.63.47z"
            class="region_2077" />
        <path
            d="M165.449 251.716c2.862.202 6.012.218 8.837-.005.565-2.722-3.293-.755-4.78-1.18-1.298.138-3.425-.245-4.057 1.185z"
            class="region_2078" />
        <path
            d="M183.549 247.751c1.1 1.782 1.659 1.694 4.362.983 4.756-.804 9.469-2.722 13.126-5.838-2.851-.364-5.203 2.553-8.028 3.08-3.065 1.011-6.316 1.334-9.46 1.775z"
            class="region_2079" />
        <path d="M178.8 248.91c1.409 1.14 4.263 1.021 5.635-.22-1.055-1.405-4.627-1.187-5.634.22z"
            class="region_2080" />
        <path d="M153.161 251.808c2.005-.156-.683-3.672-.034-.105z" class="region_2081" />
        <path d="M165.61 247.633c1.872 1.678 4.387-1.361.845-.838-.447-.003-1 .322-.845.838z" class="region_2083" />
        <path
            d="M180.196 243.74c1.395 3.243 2.738.242 3.736-1.522.552-1.389 5.488-3.68 1.661-2.75-2.1.53-5.537 1.572-5.397 4.272z"
            class="region_2086" />
        <path d="M182.302 245.514c3.957 1.985 8.59-2.065 8.809-5.988-4.064-1.733-7.574 2.592-8.81 5.988z"
            class="region_2087" />
        <path d="M191.72 242.124c2.273 2.502 1.335-3.386-.012-.319-.027.105-.002.214.012.32z" class="region_2088" />
        <path
            d="M186.331 245.975c2.835-.217 7.159-1.07 7.577-4.446-.893-2.224-3.23-2.474-3.206.28-.88 1.88-2.576 3.226-4.382 4.153m5.228-3.907c.244-3.404 3.755 1.097.61.806-.336-.15-.515-.465-.61-.806z"
            class="region_2089" />
        <path
            d="M261.145 243.636c-1.046 1.1-3.633-.311-5.25-.281-2.117-.331-5.234-1.526-5.414-3.766 3.384 1.044 7.191 1.118 10.338 2.663.213.428.293.913.326 1.384z"
            class="region_2091" />
        <path
            d="M261.038 244.576c-.516 2.5-1.492 5.344-3.021 7.218-2.341-.124-4.947.217-7.133-.181.298-3.099-2.436-5.218-4.99-6.1.996-2.031 1.192-5.573 3.824-6.037 1.354 2.559 4.151 3.964 7.042 4.223 1.313.42 3.286.163 4.278.877z"
            class="region_2092" />
        <path
            d="M250.763 251.714c-1.894.216-3.428-1.476-5.267-2.118-1.1-1.493-.007-5.045 2.091-3.052 2.075.859 3.162 2.996 3.176 5.17z"
            class="region_2093" />
        <path
            d="M263.481 236.637c-.283 3.086-4.257 1.436-6.27 1.444-1.826-.537-4.675-.183-5.92-1.4 2.504-2.928 6.212-4.635 9.49-6.582 2.37-1.343 3.16 1.587 2.695 3.392-.003 1.049.069 2.098.005 3.146z"
            class="region_2099" />
        <path
            d="M263.495 240.912c-4.076-.402-8.317-.94-12.214-2.264-1.956-2.652 1.96-.752 3.393-.771 2.837.235 6.232 1.555 8.764.138.151.96.024 1.941.057 2.897z"
            class="region_2100" />
        <path d="M261.246 251.713c-2.643.828 1.279-4.525 0 0z" class="region_2102" />
        <path
            d="M263.525 251.751c-3.164 1.186-2.387-2.48-1.635-4.239.866-1.23.005-5.11 1.685-4.73-.033 2.985.057 6-.05 8.969z"
            class="region_2103" />
        <path d="M164.449 244c.815 2.373 3.776-.702 1.31-1.287-.774-.135-1.519.45-1.31 1.287z" class="region_2105" />
        <path
            d="M159.755 241.08c.793 1.733 4.118-.18 5.87.95 2.102.503 3.904 1.811 5.554 3.116 2.839-1.74-.197-5.011-2.346-5.727-2.731-1.197-7.356-2.25-9.053.915-.02.25-.082.495-.025.745z"
            class="region_2106" />
        <path
            d="M160.127 242.115c2.346 3.196 7.12 4.536 10.815 3.17-2.518-2.889-7.014-4.087-10.778-3.26m4.162 1.855c-.085-2.65 4.147-.501 1.913.93-.727.462-1.808-.1-1.913-.93z"
            class="region_2107" />
        <path d="M247.225 239.3c-1.272 1.399-1.81 5.25-2.814 5.54-1.108-2.036.419-5.656 2.814-5.54z"
            class="region_2108" />
        <path d="M243.563 240.357c-.15 2.649-3.594.953-2.627-1.107.608-2.171 3.05-.637 2.627 1.107z"
            class="region_2109" />
        <path
            d="M195.393 247.476c3.236-1.949 7.452-.975 9.821 1.918 2.397 2.844 2.866.107 2.642-2.271.035-4.268.515-8.797-.779-12.88-1.375.74-.523 3.627-2.117 4.753-2.31 3.222-5.494 5.716-9.087 7.34-.182.337-.682.704-.48 1.14z"
            class="region_2110" />
        <path
            d="M212.964 243.697c.486 1.482 4.177 3.394 4.005.608.296-1.871-.885-5.027-2.91-2.573-.636.416-1.258 1.15-1.095 1.965z"
            class="region_2116" />
        <path
            d="M216.253 240.621c1.577 1.487.301 4.368.942 5.402 1.69-.202 2.25-3.36 4.789-2.78 3.55-.863 7.286-.32 10.837-.635-.018-2.087-3.796-.761-5.363-1.095-3.03-.094-6.135.513-9.089.478-.873-.185-1.12-2.186-2.116-1.37z"
            class="region_2117" />
        <path
            d="M218.374 246.13c4.732.468 10.299.166 14.142-3.012-3.8-.617-8.467-.242-12.468.715-.947.238-1.592 1.392-1.674 2.297z"
            class="region_2118" />
        <path
            d="M217.181 240.344c1.126 2.907 4.517.741 6.768 1.128 2.886-.258 5.9-.108 8.716-.164-3.57-2.9-8.789-2.279-13.077-1.648-.766.223-1.784.216-2.407.684z"
            class="region_2119" />
        <path
            d="M263.481 230.183c-2.783-1.658-5.444 1.689-7.858 2.791-1.86 1.361-4.678 2.539-5.091 5.01-.105 1.214-4.404-.73-6.202-.406-3.825-.716-7.347 1.367-10.846 2.319 11.312-6.286 22.405-13.805 29.943-24.54.181 4.916.067 9.89.054 14.826z"
            class="region_2120" />
        <path
            d="M176.073 227.616c1.001 3.665.586 7.686 1.697 11.23 1.86 1.858 3.372-2.098 5.44-2.362 5.643-2.398 12.872-.38 16.423 4.635-1.648 1.64-5.586-1.023-6.242 2.266-2.753 2.62-6.937 3.203-10.553 2.483-1.506 2.684 3.581 1.177 5.077 1.126 4.465-.452 8.35-2.717 12.377-4.427 2.656-.175 4.195-3.134 5.43-5.219.102-3.176 2.38-3.795 2.14-.136.278 3.219.214 6.447.203 9.674 4.153 3.176 9.359.345 14.039.891 5.399.052 10.994.254 15.846 2.898 3.373.693 6.859.218 10.204 1.112.48-1.528-4.683-1.646-3.036-4.653 1.21-2.605 1.455-6.16 4.084-7.753 3.815.424 7.588 1.424 11.294 2.412 2.174 3.227-1.202 6.744-1.606 10.001 2.904-1.063 2.87-5.054 3.542-7.683 1.914-2.589-.1-3.587-2.697-3.462-7.624-.764-15.475-5.086-23.036-1.677-2.244.916-5.118 1.069-3.95 3.733-2.285 3.215-7.014 3.424-10.688 3.787-3.16-.11-7.312.185-9.287-2.77.132-2.917 4.112-2.487 4.798-4.995 4.44-3.018 10.288-1.788 15.281-1.097 2.383 1.123 4.524.197 6.514-1.313 8.836-5.339 17.19-11.824 23.315-20.222.13-2.087-4.406.252-6.187-.023-22 3.413-44.073 6.306-66.117 9.409-4.748.78-9.653.948-14.305 2.134m86.5-11.7c-2.46-.51-5.428.904-8.11.9-1.578.487-4.682-.013-5.436 1.24 2.638 1.007 5.74.495 8.355.651-.18 2.845 2.956.635 3.557-.794.466-.732 1.215-1.243 1.634-1.996zm-5.596 4.052c-.885-2.21-4.8.798-1.64 1.146.695-.02 1.551-.344 1.64-1.146zm-9.566 19.106c-2.917-.025-4.692 4.55-2.61 6.348.564-2.242 1.555-4.303 2.61-6.348zm-3.694 1.202c.457-2.5-3.365-2.968-2.979-.199.07 2.127 2.807 2.665 2.979.199zm-.34 8.817c.29-4.305-2.79-9.603-7.554-9.375-1.842.965.89 3.58-.45 5.235-.663 1.171-4.745 2.54-1.75 3.426 2.941 1.226 6.065 3.07 9.338 1.971.402-.303.318-.827.416-1.257z"
            class="region_2122" />
        <path
            d="M156.224 233.783c6.522 3.08 13.93 4.233 20.995 5.373-.245-3.892-.386-7.936-1.455-11.666a276.2 276.2 0 0 0-18.092 2.7c-.522 1.18-1.096 2.346-1.448 3.593z"
            class="region_2123" />
        <path d="M256.82 220.119c-1.041 2.26-4.36-.683-1.06-.767.425.076 1.092.2 1.06.767z" class="region_2124" />
        <path d="M261.247 217.338c-.767 1.05-3.304 4.329-3.809 1.545.953-.817 2.802-1.085 3.809-1.545z"
            class="region_2125" />
        <path
            d="M179.678 239.555c3.53 1.464 6.933-1.309 10.568-.422 2.224-.16 3.18 2.31 5.166 2.276 1.192-.201 5.788 1.137 3.454-1.126-4.606-5.33-14.454-6.733-19.193-.903z"
            class="region_2127" />
        <path
            d="M262.402 215.941c-3.25 3.376-8.675 2.786-12.926 2.152-.204-.984 4.15-.778 5.609-1.19 2.4-.002 5.172-1.253 7.317-.962z"
            class="region_2128" />
        <path
            d="M217.12 239.977c4.794-1.1 10.176-1.74 14.818.37 1.982-.62 5.19-2.393 1.207-2.491-4.921-.756-10.455-1.812-15.061.6-.386.432-.946.896-.963 1.521z"
            class="region_2129" />
        <path
            d="M158.092 229.776c21.962-3.54 44.108-5.804 66.094-9.172 12.993-1.84 25.99-3.73 38.959-5.767.852-3.863.098-8.123.342-12.139.13-2.326.07-6.185-1.153-1.985-2.629 6.008-7.485 11.314-14.086 12.79-13.114 3.959-26.858 4.793-40.2 7.645-16.348 3.074-32.879 5.093-49.199 8.295l-.757.333m51.313-7.788c1.715-1.81 5.087-2.176 7.482-1.566-.697 1.678-3.791 1.46-5.52 1.867-.603-.063-1.502.197-1.962-.301zm52.779-16.425c-1.256-1.03-2.541 3.114-4.03 3.862-.561 1.289-5.187 2.745-3.311 3.651 3.765-.238 7.006-3.848 7.34-7.513z"
            class="region_2130" />
        <path d="M209.662 221.852c2.173.641 5.052-.121 7.108-1.12-2.03-.887-5.34-.248-7.108 1.12z"
            class="region_2131" />
        <path
            d="M262.078 205.409c-.282 3.807-4.005 8.053-7.87 7.282 3.086-1.901 5.604-4.54 7.613-7.536.174-.1.294.116.257.254z"
            class="region_2132" />
        <path
            d="M291.23 186.968c-4.615-3.798-11.188-2.101-16.473-.865-3.233 1.172-6.597 3.382-6.955 7.089.006-4.378 4.74-6.886 8.567-7.734 4.69-.675 11.17-2.371 14.86 1.51z"
            class="region_2137" />
        <path
            d="M291.281 186.709c-4.589-3.806-11.089-2.063-16.38-1.002-3.366 1.178-6.846 3.425-7.367 7.222-3.002-.934-.471-3.528-.671-5.657-.676-2.697 1.602-4.386 3.927-5.01 5.394-1.615 11.813-4.153 17.092-.971 1.287 1.553 3.32 3.461 3.399 5.418z"
            class="region_2138" />
        <path
            d="M289.603 183.067c-3.274-4.867-10.077-3.519-14.863-2.118-2.717.946-6.575 1.304-7.926 4.182-.048 2.01-.064 4.564-1.11 6.14-.245-3.384-1.08-8.36 3.095-9.695 5.901-2.552 13.108-4.537 19.207-1.712.835.868 1.216 2.096 1.597 3.203z"
            class="region_2139" />
        <path
            d="M314.018 203.075c-.947 2.377-4.369.85-6.041.022-3.713-2.054-9.763-3.175-10.084-8.335.262-3.758 2.543-8.505 6.688-9 3.295.458 1.53 4.562 2.062 6.755.424 3.986 2.214 8.485 6.475 9.61.364.198.963.434.9.948z"
            class="region_2141" />
        <path
            d="M314.011 202.517c-2.656-1.17-5.418-2.613-6.195-5.702-1.622-3.102-.685-6.72-1.35-9.926.124-3.336 2.227-6.867 5.025-8.757 2.03 4.696-2.52 10.296.635 14.742 2.51.624 1.956 2.659 1.924 4.97-.031 1.555.06 3.125-.039 4.673z"
            class="region_2142" />
        <path
            d="M313.993 206.081c-2.366-1.957-5.857-.327-8.676-.59-4.184.07-9.052.976-12.697-1.506-2.152-4.585-.807-9.935-1.209-14.84-.571-2.688.243-3.866 2.833-4.25 4.919-2.269 7.772-8.788 13.723-8.617 1.176-.105 4.645 1.226 2.534 2.424-2.203 1.947-3.546 4.716-4.266 7.53-3.55-2.009-6.704 2.353-7.805 5.327-1.843 3.466.236 7.603 3.765 8.896 3.462 1.334 6.708 4.097 10.555 3.912 2.031-1.356.997.203 1.243 1.714z"
            class="region_2143" />
        <path
            d="M300.857 209.094c-8.695 1.106-17.557 1.496-26.113 3.47-1.65.729 1.039-3.548 2.507-2.597 6.044-.081 12.159-.279 18.117-1.236.058-1.577-2.324-2.109 1.207-1.548 1.48.338 3.264.764 4.282 1.911z"
            class="region_2144" />
        <path
            d="M295.618 208.385c-3.488 1.122-7.524.932-11.228 1.234 3.65-.262 7.178-3.923 10.768-1.863.204.125.513.34.46.629z"
            class="region_2145" />
        <path d="M290.846 207.347c-4.355 2.194-9.702 2.843-14.295 2.352 4.579-1.564 9.513-2.025 14.295-2.352z"
            class="region_2146" />
        <path
            d="M314.026 208.903c-13.304 1.586-26.753 2.572-40.05 4.474 1.428-1.684 4.764-1.254 6.965-1.864 10.941-1.46 21.93-2.55 32.928-3.49.383.165.093.591.157.88z"
            class="region_2147" />
        <path
            d="M311.723 228.079c-2.47 1.805-6.12 1.44-9.128 1.8-10.243.171-20.497-.213-30.728-.657-1.29-1.606 2.552-3.19 3.901-3.939 11.424-3.674 24.412-3.397 35.262 1.96.234.24.815.376.693.836z"
            class="region_2150" />
        <path
            d="M309.826 229.666c-10.9 4.534-23.023 2.707-34.372 5.214-4.64.818-10.937 2.886-11.064 8.547-.283 1.292-.698 7.555-.67 3.683.132-5.065-.264-10.232.193-15.234 3.884-2.013 5.758-6.977 10.495-7.6 2.644-.59 5.353-.75 8.047-.952-4.403 1.375-9.945 1.619-12.826 5.715-.055 2.32 3.627 1.466 5.22 1.772 9.966.13 19.984.727 29.93-.1 1.702-.257 3.378-.628 5.047-1.045m-39.849 1.583c-.162-1.728-4.674-1.088-3.088.5.935.465 2.538.57 3.088-.5z"
            class="region_2151" />
        <path
            d="M313.97 235.495c-6.4 2.292-13.448 1.882-20.15 1.78-4.749-.32-9.471-1.12-13.955-2.63-1.967-.414 3.939-.677 5.252-.924 8.36-.841 17.19-.43 24.948-4.088 1.854-.63 2.361-2.636.033-3.082-4.75-1.95-9.772-3.408-14.914-3.778 6.299-.117 12.934-.388 18.801 2.296-.03 3.478-.007 6.951-.016 10.426m-.21-9.442c-.075-1.94-5.055-1.38-2.228.115.663.244 1.731.62 2.229-.115z"
            class="region_2153" />
        <path
            d="M313.97 251.713c-16.637.127-33.3.118-49.94.005-.511-3.098.448-6.534.773-9.722.799-3.894 5.304-5.916 8.793-6.345-3.146 1.506-2.958 6.126.242 7.454 3.757 1.991 10.145 1.463 11.606-3.156.94-1.75-3.29-4.707.092-3.565 8.944 1.58 18.274 1.743 27.157-.206 2.616-.873.733 4.202 1.295 5.926l-.019 9.609m-13.807-1.083c-1.154-2.225-3.658.246-5.189-.505-4.9-.56-10.03-.818-14.865.19.746 1.412 3.976.805 5.69 1.132 3.515.057 7.119.147 10.551-.56.982.792 3.044.838 3.813-.257zm-7.88-1.975c-5.265-.467-10.973-1.075-16.03 1.035-2.316 1.759 2.847.09 3.85.003 4.005-.667 8.123-.126 12.117-.837zm-17.31 1.43c-1.542-1.647-4.601-.923-6.383-2.6-1.68-1.817-4.051-.728-1.912 1.364 1.687 2.328 6.207 3.391 8.294 1.237zm-.725-2.457c-.51-1.941-3.395-2.56-5.189-2.943-1.97 1.1 1.617 3.223 2.941 3.387.718.1 1.799.3 2.248-.444z"
            class="region_2154" />
        <path
            d="M291.296 206.565c-4.98 1.058-10.712.821-15.535 3.053-1.5.512-2.443 5.029-3.319 3.287 2.65-4.282 6.598-7.596 11.44-9.094 2.345-.892 4.913-1.62 7.407-1.575.058 1.44-.012 2.888.007 4.329z"
            class="region_2159" />
        <path
            d="M291.282 207.058c-5.156.77-10.83.584-15.532 3.066-1.22.889-3.06 5.11-1.624 1.562 2.087-3.785 7.132-3.24 10.79-4.124 2.048-.159 4.52-.787 6.366-.504z"
            class="region_2160" />
        <path
            d="M291.294 202.057c-6.778.607-13.936 3.453-17.856 9.306-2.557 3.702-.658.037.859-1.454 3.935-5.145 10.668-7.482 16.918-8.003l.086.128z"
            class="region_2161" />
        <path
            d="M291.165 187.238c-7.216 1.616-14.626 3.103-22.046 2.806 3.46-4.41 9.883-4.988 15.178-5.272 2.367.148 5.35.464 6.868 2.466z"
            class="region_2163" />
        <path
            d="M291.265 198.347c-6.053.051-13.353 1.78-16.35 7.608-1.16 2.354-1.566 5.448-3.446 7.22-3.633-.807 1.493-1.02 1.326-3.444 1.91-5.813-.204-12.615-4.829-16.506-.14-3.367 2.597-3.192 5.169-3.025 6.106-.32 12.119-1.575 18.091-2.76.076 3.632.124 7.273.039 10.907z"
            class="region_2164" />
        <path
            d="M291.284 201.806c-6.896.48-14.238 3.426-18.156 9.437-.115-.375 1.348-3.812 1.936-5.333 2.984-5.661 10.134-7.452 16.102-7.356.257 1.015.12 2.191.118 3.252z"
            class="region_2165" />
        <path
            d="M314.006 216.602c-11.7.418-23.356 1.762-34.993 3.05 0-2.086-.62-5.144.288-6.806 11.463-1.633 23.018-2.452 34.523-3.724.5 2.225.137 5.07.182 7.48m-.123-.942c-3.018-1.339-6.781-.448-10.084-.59-2.283.423-5.434-.15-7.082 1.615 2.223 1.255 5.225-.101 7.742.06 3.073-.474 6.392.16 9.324-.865zm-35.071 3.921c-.423-1.93 1.068-6.076-.827-6.524-3.733.723-8.783 1.037-10.728-3.027-2.06-4.624-1.906-9.86-3.059-14.73.047 3.503 1.742 7.123.738 10.534-2.206 3.072-.943 7.001-1.268 10.548.162 4.705-.057 9.43.104 14.13 1.725-6.85 8.68-9.891 15.04-10.93z"
            class="region_2166" />
        <path
            d="M265.162 204.465c-.548 3.028-2.033 3.908-1.434.127.012-3.534-.043-7.107.044-10.613.554 3.479 1.105 6.98 1.39 10.486z"
            class="region_2167" />
        <path d="M274.176 247.394c-1.566 1.529-5.155-.155-5.639-2.233 1.786-.797 4.324.831 5.636 2.092z"
            class="region_2168" />
        <path
            d="M274.809 250.146c-2.894 2.119-8.449.433-8.82-3.418 2.174-.176 4.104 2.632 6.59 2.456.65.247 2.229.006 2.23.962z"
            class="region_2169" />
        <path
            d="M273.186 207.76c-.094 2.2-2.065 5.838-4.586 3.87-2.348-1.75.096-4.651-.24-7.014.193-3.42-.249-7.003-1.33-10.186 1.596.158 2.292 3.724 3.22 5.3.776 2.746 1.407 5.632 2.936 8.03z"
            class="region_2172" />
        <path
            d="M268.236 202.558c-.832-2.86-2.29-5.543-3.519-8.195 2.29-.043 3.038 1.373 3.125 3.674.269 1.489.4 3.013.394 4.52z"
            class="region_2173" />
        <path d="M267.711 193.468c-.893 2.51-4.218-2.032-1.486-1.338.467.434 1.24.74 1.486 1.338z"
            class="region_2174" />
        <path
            d="M268.235 204.57c-.275.993-.366 6.878-1.372 4.275-1.424-4.885-1.771-10.228-2.672-15.09 1.656 3.39 4.062 6.933 4.044 10.815z"
            class="region_2175" />
        <path d="M266.663 194.509c-1.773 1.274-4.057-3.208-1.323-1.22.444.382 1.043.717 1.323 1.22z"
            class="region_2176" />
        <path
            d="M273.34 206.399c-.48 2.131-1.952-2.787-2.18-3.847-.554-3.124-2.303-5.879-3.578-8.668 1.52-.287 3.162 2.748 4.123 4.21a18.319 18.319 0 0 1 1.634 8.305z"
            class="region_2177" />
        <path
            d="M314.01 207.846c-4.291.4-8.646.845-12.946 1.202-2.615-2.238-6.26-2.379-9.507-1.967-.23-1.886-.063-3.98-.046-5.9-.073 3.265 3.17 4.485 5.922 4.512 5.157.667 10.373-.695 15.506-.229 1.14.306 1.203 1.409 1.072 2.382z"
            class="region_2180" />
        <path
            d="M285.34 239.512c-.924 4.784-7.57 5.48-11.252 3.522-3.107-1.078-3.654-5.594-.581-7.075 3.616-2.37 11.36-1.7 11.833 3.553z"
            class="region_2181" />
        <path
            d="M295.87 250.618c-4.846 1.196-10.17.837-15.142.19-1.252-.979 3.45-.842 4.49-1.009 3.497.155 7.393-.365 10.653.82z"
            class="region_2182" />
        <path
            d="M292.047 248.739c-5.411.717-10.99-.015-16.27 1.691.11-.953 3.373-1.496 4.794-1.794 3.777-.454 7.744-.355 11.476.103z"
            class="region_2184" />
        <path d="M299.993 250.628c-.96 1.776-5.632-.193-2.155-.782.7.02 1.934-.101 2.155.782z" class="region_2185" />
        <path d="M317.365 220.42c-1.023 1.952-4.644-.074-1.454-.63.432.001 1.554-.05 1.454.63z" class="region_2187" />
        <path d="M298.322 222.74c-1.974.092-1.364-.162 0 0z" class="region_2188" />
        <path d="M278.873 219.612c-.046-1.466-.031-6.944.023-5.831-.01 1.943-.002 3.891-.023 5.83z"
            class="region_2189" />
        <path
            d="M310.156 229.238c-8.059 2.797-16.774 1.317-25.133 1.639-5.037-.369-10.337.425-15.21-.955-.7-1.795 3.862-4.245 3.68-3.57-2.292.798-3.18 3.79.132 3.206 11.868-.005 23.828 1.44 35.644-.199.296.012.589-.262.887-.12z"
            class="region_2194" />
        <path
            d="M329.619 214.005c-1.876 8.758-7.023 17.598-15.438 21.352-.003-5.762-.184-11.686.098-17.364 4.976.104 10.054-.622 14.226-3.534.323-.048.83-.693 1.113-.454m-12.084 6.307c-.457-1.776-4.842.094-2.388 1.04.858.08 2.085-.082 2.388-1.04z"
            class="region_2195" />
        <path d="M267.345 228.946c-.345.475.046-.397 0 0z" class="region_2197" />
        <path
            d="M314.022 223.032c.56 3.389-3.451-.001-5.232.235-8.596-1.37-17.392-.665-26.047-.151-3.177.12-6.498.757-9.531 1.064.505-1.7 4.19-1.455 6.002-2.089a132.548 132.548 0 0 1 31.245-2.426c3.276-.313 3.964-.11 3.563 3.367z"
            class="region_2198" />
        <path
            d="M282.521 221.263c-6.101 1.2-14.253 1.943-16.88 8.677-1.524 3.178-2.424.826-.985-1.346 2.972-6.648 11.192-8.911 17.725-9.003.13.54.173 1.125.14 1.672z"
            class="region_2207" />
        <path
            d="M298.79 218.968c-1.181 1.234-4.14.475-5.96.988-3.401.142-6.757.912-10.12 1.242-1.12-2.826 2.595-1.796 4.192-2.253 3.905-.378 7.8-.943 11.709-1.135.215.32.14.782.178 1.158z"
            class="region_2208" />
        <path
            d="M313.715 215.776c-3.946 1.009-8.321.458-12.42 1.088-1.229.4-6.495.346-3.132-.981 5.104-.768 10.454-1.286 15.527-.313l.036.171z"
            class="region_2209" />
        <path
            d="M336.546 192.917c-6.179.785-12.755.092-18.628 2.463-3.276 1.74-2.893 6.038-3.752 9.14.189-3.67-.4-7.678.264-11.146 7.105-1.864 14.526-2.282 21.84-2.746.275.67.267 1.555.276 2.29z"
            class="region_2213" />
        <path d="M406.063 218.673c-.386.054.173-.212 0 0z" class="region_2216" />
        <path
            d="M364.435 207.06c-10.617-.472-21.275-.262-31.878.286-6.066-.973-13.221-2.37-16.763-7.917-.94-2.958 2.943-4.676 5.02-2.744 4.53 3.872 10.48 5.322 16.336 5.387 9.054-.14 18.1-.155 27.148.324.4 1.42.112 3.151.137 4.663z"
            class="region_2217" />
        <path d="M324.732 205.825c-3.78-.29-8.916-2.033-9.051-6.404 1.812 3.365 5.688 5.014 9.05 6.404z"
            class="region_2219" />
        <path
            d="M327.547 207.279c-3.896-.383-7.815-1.052-11.679-1.259-3.58-.495-.256-2.88 1.334-.752 2.007.566 4.219.282 6.32 1.088 1.335.32 2.72.553 4.025.923z"
            class="region_2221" />
        <path d="M319.144 205.356c-2.692.953-1.968-2.098.006-.036z" class="region_2222" />
        <path
            d="M323.373 205.776c-2.072.198-3.9-.473-5.652-1.29-2.65.862-4.134-.98-2.8-3.457.59-3.946.617.668 2.028 1.782 1.609 1.863 4.151 2.43 6.424 2.965z"
            class="region_2223" />
        <path d="M316.562 206.391c-2.388 2.848-3.666-1.487-.567-.21.034.262.524-.041.567.21z" class="region_2224" />
        <path d="M332.2 207.482c-3.444.488-7.023-1.053-10.208-1.634 3.487-.078 6.86 1.033 10.209 1.634z"
            class="region_2225" />
        <path d="M321.58 207.304c-1.839 1.225-.648-1.797 0 0z" class="region_2227" />
        <path
            d="M329.27 207.701c-5.023.34-10.106.914-15.09 1.22-.007-2.704 3.983-2.78 6.015-2.474 3 .582 6.086.706 9.075 1.254m-7.69-.397c-.766-1.654-1.488 1.053 0 0zm1.252.573c-.355-1.838-2.024.836 0 0z"
            class="region_2228" />
        <path d="M322.833 207.878c-2.004.82-.414-1.8 0 0z" class="region_2229" />
        <path
            d="M364.445 193.311c-1.906-.592-3.83-1.952-6.075-1.868-3.99.83-8.118-1.852-12.128-.29-3.796-.152 1.5-1.571 3.136-.956 5.089-.13 10.398.453 15.094 2.377-.033.244.052.497-.027.737z"
            class="region_2231" />
        <path d="M352.767 191.34c-1.985.761-4.534.686-6.6.132 1.577-1.05 4.822-.791 6.6-.133z" class="region_2232" />
        <path d="M363.199 193.096c-1.912-.056-4.467-.195-5.954-1.392 1.816-.382 4.576.203 5.954 1.392z"
            class="region_2233" />
        <path d="M315.856 210.99c-1.907 1.878-1.123-2.148 0 0z" class="region_2235" />
        <path d="M321.049 213.383c-1.698 1.33-4.446 1.766-6.374 1.044 1.431-1.4 4.228-.822 6.219-1.196l.143.084z"
            class="region_2236" />
        <path d="M317.722 211.163c-1.359 1.423-1.95-1.407 0 0z" class="region_2237" />
        <path
            d="M327.456 208.053c-3.568 2.713-5.572 7.778-10.616 8.176-2.913 1.444-2.962-.91-2.69-3.222.073-1.982-.737-4.786 2.24-4.129 3.669-.32 7.352-.693 11.021-.878m-1.4.805c-2.099-1.498-2.505 2.316 0 0zm-1.67 1.276c-2.56-1.49-6.46-1.77-8.878-.085 2.527 1.07 5.608.05 8.356.433.112-.19.578.043.522-.349zm-.378.893c-3.033.145-6.228 1.14-9.355 1.091-.636 2.118 3.77.829 4.75.898 1.523-.318 3.809-.467 4.605-1.99zm-.772 1.27c-.362.53-5.137 3.33-3.315 1.956 3.044-1.354-.961-1.05-2.158-.73-2.105-.55-4.787 1.662-1.21 1.394 2.724-.59 2.898.143.044.171-3-.462-2.217 2.305.354 1.079 2.48-.476 4.84-1.762 6.285-3.87zm-5.313-.998c-1.42-2.099-2.5 1.647 0 0zm-1.903-.319c-1.895-2.964-2.097 2.942 0 0z"
            class="region_2239" />
        <path
            d="M364.382 202.157c-6.39-2.353-13.382-1.32-20.049-1.894-7.338-.059-14.805-.455-21.866-2.554-.876-1.57-5.1-1.882-4.529-2.235 5.802-2.313 12.253-1.679 18.364-2.4 9.307-.415 18.934-1.544 27.945 1.498.39 2.404.118 5.093.135 7.585z"
            class="region_2240" />
        <path
            d="M364.383 251.699c-8.168.078-16.341.003-24.509.094 2.298-4.501 5.103-9.267 6.762-14.257 3.18-8.68 4.896-17.852 5.605-27.054 3.933-.353 8.155-.082 12.17.093-.023 13.708.06 27.42-.028 41.125m-.094-15.247c-2.117-1.686-2.155 1.852 0 0zm.008-11.745c-1.884-2.396-4.039 1.687-.491.639.364-.05.385-.378.491-.639zm-.341 25.332c-.567-1.574-4.68-1.58-4.325.412 1.061.942 3.728 1.172 4.325-.412zm-5.746-4.764c.202-4.824-6.284-6.378-9.989-4.813-3.202.775-5.044 5.219-2.018 7.35 3.398 2.883 10.711 2.317 12.007-2.537z"
            class="region_2241" />
        <path d="M325.857 208.973c-3.093 1.803-.831-1.646 0 0z" class="region_2243" />
        <path
            d="M336.345 212.24c-.48 6.365-6.079 11.437-11.377 13.641 2.24-3.75 4.033-7.806 4.858-12.105 1.925-1.22 4.299-2.517 6.54-2.38-.034.28.03.566-.021.844z"
            class="region_2245" />
        <path
            d="M364.058 202.221c-9.264-.444-18.557-.347-27.81-.31-4.484-.284-9.509-.897-13.013-3.77 12.395 3.27 25.32 1.608 37.91 3.142.988.213 2.03.439 2.913.938z"
            class="region_2246" />
        <path
            d="M358.134 244.825c-1.11 5.496-9.706 5.998-12.759 1.89-2.314-3.736 2.578-6.988 5.998-6.645 2.885-.092 6.614 1.433 6.76 4.755z"
            class="region_2247" />
        <path
            d="M313.954 219.523c-4.956.02-10.08-.04-14.947-.23-.126-2.419 4.128-.532 5.817-1.196 2.997.181 6.423-.356 9.18.122-.04.423.028.897-.05 1.304z"
            class="region_2254" />
        <path
            d="M313.959 217.806c-4.985.166-10.08.207-15.065.176 1.737-.822 4.588-.48 6.754-.82 2.773-.112 5.602-.415 8.33-.333-.034.323.092.661-.02.977z"
            class="region_2255" />
        <path d="M324.186 210.158c-2.75-.011-5.939.557-8.56-.217 2.457-1.363 6.21-1.264 8.56.217z"
            class="region_2256" />
        <path
            d="M323.822 211.184c-2.57 1.827-6.212 2.201-9.243 1.714.119-1.5 3.077-.546 4.337-1.074 1.571.009 3.533-1.058 4.906-.64z"
            class="region_2257" />
        <path
            d="M322.818 212.592c-1.96 2.315-5.329 4.038-8.327 3.363.792-1.559 3.812-.329 5.346-1.429 1.194-.284 2.033-1.478 2.98-1.934z"
            class="region_2258" />
        <path
            d="M352.095 210.829c-1.29 14.295-4.647 28.955-12.78 40.961l-24.889.008c-.582-5.177-.062-10.617-.23-15.896 3.368-2.45 7.326-4.7 9.633-8.43 2.157-2.486 5.77-3.388 7.969-5.983 3.056-2.612 4.457-6.587 5.025-10.36 5.022-.563 10.068-.854 15.124-.732l.13.382z"
            class="region_2259" />
        <path
            d="M337.615 207.287c-5.804 2.326-10.202 7.365-16.182 9.308-2.338.227-5.208 1.045-7.272.336 3.725.255 7.622-1.187 10.823-3.303 3.099-1.69 5.623-4.436 8.622-6.11a59.705 59.705 0 0 1 4.01-.23z"
            class="region_2260" />
        <path
            d="M332.84 207.652c-1.696 1.279-3.296 2.983-5.183 3.858-3.316-.219-2.42-2.055-.197-3.339 1.717-.51 3.668-.46 5.38-.519z"
            class="region_2261" />
        <path
            d="M327.625 211.752c-3.714 2.585-8.103 5.468-12.766 4.937 4.107-.213 7.71-2.5 9.915-5.937.815 0 2.198.507 2.851 1z"
            class="region_2262" />
        <path
            d="M411.749 209.6c-1.177-1.86-3.604-2.925-5.483-3.272 2.113-.696 5.704-.66 5.476 2.452-.027.264.094.56.006.82z"
            class="region_2265" />
        <path d="M390.5 194.62c-1.485 2.119-.71 3.135-1.753.123-.364-.533 1.5.003 1.753-.123z" class="region_2267" />
        <path
            d="M378.573 193.518c-4.289 1.43-9.123.591-13.47-.34-1.292-1.37 3.634-.151 4.724-.483 2.907.108 5.946.25 8.746.823z"
            class="region_2268" />
        <path
            d="M399.602 193.665c.466 2.622-1.978 3.385-4.068 3.636-1.813.081-4.912 1.098-6.038.008-.128-2.514 1.933-3.108 4.1-2.68 2.032-.015 4.228-.427 6.006-.964z"
            class="region_2269" />
        <path
            d="M389.31 197.724c-7.042.127-14.153-.689-21.085-1.941-1.463.214-5.383-2.185-2.799-2.39 4.542.979 9.547 1.56 13.96.151 3.053.64 6.298.555 9.285 1.218.692.739.425 2.046.64 2.962z"
            class="region_2270" />
        <path
            d="M413.505 195.648c-3.1 1.436-5.6 4.314-9.093 4.813-2.307-1.193-4.306-4.32-3.234-6.743 1.727.331 1.062 4.149 3.852 3.603 2.97.44 5.66-2.27 8.475-1.673z"
            class="region_2272" />
        <path
            d="M411.927 195.387c-2.765.864-6.317 3.05-8.97.968.946-2.599 2.941-2.095 5.314-1.532 1.21.21 2.477.258 3.656.564z"
            class="region_2273" />
        <path
            d="M404.19 200.607c-2.756 1.04-5.787 1.469-8.69 1.95 3.418-1.656 3.629-5.933 4.406-9.03 1.924.427.17 4.004 2.222 5.144.57.755 1.458 1.295 2.061 1.936z"
            class="region_2274" />
        <path
            d="M344.762 192.475c-2.619.04-5.686.687-8.084.201-1.257-3.326 3-1.84 4.874-2.29 2.12.041 3.74-1.044 3.21 2.089z"
            class="region_2275" />
        <path d="M409.023 209.98c-.636-1.248-5.991-1.6-3.47-2.298 1.434-.244 3.555.612 3.47 2.298z"
            class="region_2277" />
        <path
            d="M414.13 214.73c-2.075-3.137-4.051-6.598-7.756-8.066 3.054-.092 5.59 2.665 6.386 5.547.446.84.969 1.677 1.37 2.519z"
            class="region_2278" />
        <path d="M411.483 211.095c-2.38.097-1.686-3.435-.19-.416l.196.33z" class="region_2279" />
        <path
            d="M414.391 217.7c-2.44-3.794-6.088-7.75-11.066-7.533-2.486-.022.25-3.011 1.714-1.784 4.357.847 7.42 4.95 9.383 8.55-.073.247.104.53-.03.767z"
            class="region_2280" />
        <path
            d="M414.397 216.235c-1.453-2.334-3.668-4.308-5.242-6.449-.472-2.539-3.673-2.623-5.492-1.645-1.664 1.033-2.137 2.686-4.734 1.599-3.7-.383-7.716-.58-11.222-1.058 6.23.16 12.226-3.362 18.43-1.998 2.166.922 3.699 2.13 4.185 4.232 2.22.305 2.69 2.917 4.074 4.43-.023.295.106.599 0 .89z"
            class="region_2281" />
        <path
            d="M414.396 214.724c-1.603-2.127-2.648-4.647-2.801-7.32-1.694-3.278-5.985-.079-8.437-1.42.37-1.84-1.126-5.225 1.65-5.406 3.548-.728 5.908-4.02 9.318-4.806.698 1.991.097 4.983.3 7.354-.023 3.863.054 7.747-.03 11.598z"
            class="region_2282" />
        <path
            d="M403.04 202.273c-.02 2.092.619 4.885-2.462 4.171-5.368.894-10.675 2.636-16.18 2.052-1.723.225-1.847-5.38.241-4.581 6.233.111 12.367-1.463 18.396-2.707.09.347.007.712.005 1.065z"
            class="region_2283" />
        <path
            d="M383.206 208.366c-2.185-.171-5.68.556-4.642-2.82-1.125-2.846 1.82-1.64 3.543-1.689 2.113-.384.709 3.303 1.099 4.509z"
            class="region_2285" />
        <path
            d="M378.41 205.596c-2.518-1.443-5.676-.945-8.31-1.743-3.802-1.954 1.38-.711 3.075-.721 1.857.651 5.873-.824 5.276 2.335z"
            class="region_2286" />
        <path
            d="M378.415 207.63c-1.894-1.654-4.637-1.663-6.946-1.971-2.225-2.6 3.022-.782 4.441-.805 1.571.392 3.203.68 2.505 2.775z"
            class="region_2287" />
        <path
            d="M371.368 205.81c-2.462-.108-4.301 2.133-6.758 1.214.201-1.94-1.04-5.684 2.205-4.462 1.914.01 3.842 1.56 4.553 3.248z"
            class="region_2288" />
        <path d="M378.407 208.001c-3.594-.219-7.367-.383-10.877-.862 3.118-1.932 7.654-1.53 10.644.467l.24.297z"
            class="region_2289" />
        <path d="M404.045 194.452c-.459 4.047-3.5-1.514-.425-.351.203.02.523.052.425.35z" class="region_2291" />
        <path d="M363.767 250.211c-.766 1.186-4.357 1.163-3.939-.54.95-.823 3.653-.926 3.94.54z" class="region_2293" />
        <path
            d="M414.195 242.433c-4.731 1.958-10.175 1.896-15.257 1.782-1.85-.224-4.007-.054-5.602-1.04 4.303-1.684 9.246-.863 13.824-1.141 2.316.107 4.841-.209 7.035.399z"
            class="region_2294" />
        <path
            d="M378.64 245.717c-1.328 3.537-6.21 3.468-9.355 2.85-2.384-.153-5.198-3.259-2.406-4.987 3.411-1.993 8.927-2.176 11.552 1.127.238.285.202.668.21 1.01z"
            class="region_2295" />
        <path d="M368.52 223.653c-.565 1.58-4.972.647-2.94-.875.857-.307 2.901-.382 2.94.875z" class="region_2296" />
        <path d="M364.135 236.612c-2.29.945-1.28-1.377 0 0z" class="region_2297" />
        <path d="M404.29 240.993c-1.738.09-1.786-.172 0 0z" class="region_2299" />
        <path
            d="M413.983 237.751c-5.49 1.107-11.31.88-16.873.195-.336-.897 3.7-.726 4.999-.864 3.912-.063 8.109-.341 11.874.669z"
            class="region_2300" />
        <path d="M401.943 240.993c-.531.131-.208-.24 0 0z" class="region_2301" />
        <path
            d="M364.436 194.486c-6.281-2.173-13.11-2.173-19.597-2.096.459-2.105 3.962.453 5.739-.422 2.68-.701 5.596-.67 8.106.605 1.862.716 4.031.345 5.751 1.086-.102.255.132.579 0 .827z"
            class="region_2302" />
        <path
            d="M414.41 251.661c-4.166.137-8.438.118-12.616.02-.952-3.349 1.99-2.786 4.264-2.86 2.631-.179 5.457-.499 7.69-1.913.238 1.577.696 3.16.661 4.753z"
            class="region_2303" />
        <path d="M360.367 187.63c-1.681.638-3.933.66-5.287-.671 1.739.038 3.643.201 5.287.67z" class="region_2304" />
        <path
            d="M396.732 199.677c-2.918 3.322-8.082 2.825-12.129 2.914-5.881-.252-11.792-.892-17.643-.163-3.408.845-2.054-2.71-2.382-4.834-1.008-3.721 1.55-2.461 3.884-1.63 2.4.399 4.737.693 6.702 2.255 6.713 2.998 14.499 2.04 21.568 1.458z"
            class="region_2305" />
        <path
            d="M414.39 248.777c-.411-1.998-.18-3.527-1.123-5.39 2.268-1.944.722 3.384 1.172 4.688-.06.228.067.481-.05.702z"
            class="region_2306" />
        <path
            d="M414.091 245.82c-2.494 3.139-7.247 2.616-10.883 2.872-3.51-.093-7.283.105-10.538-1.414 1.289-1.63 4.302-1.142 6.347-1.462 4.966.026 10.016-.522 14.985-.217l.09.105z"
            class="region_2307" />
        <path
            d="M394.798 222.055c-1.56 2.309-3.519-.492-4.05-2.134-1.383-1.49-5.733-1.502-4.695-4.467 1.294-2.19 4.243-.14 3.886 1.985-.176 3.158 4.829 1.7 4.86 4.616z"
            class="region_2308" />
        <path
            d="M394.298 197.688c-5.567 1.507-11.538 1.812-17.214 1.204-1.299-.317-6.127-2.77-2.315-1.973 6.48.797 13.01 1.345 19.529.769z"
            class="region_2310" />
        <path
            d="M398.043 197.054c-.158 2.819-2.88 2.682-5.01 2.816-4.6.311-9.823.563-14.028-.57 6.406.236 12.864-.438 18.948-2.507l.105.104z"
            class="region_2311" />
        <path
            d="M402.624 234.453c-.498 2.06-4.407.394-6.298.855-8.566.063-17.344-.244-25.655 2.103-2.575.755-3.077 3.543-3.412 5.762-2.254.864-2.24 3.886.01 4.751 1.431 2.001-4.063 3.608-2.642.354.038-6.251-.012-12.501.05-18.752 11.444-.349 23.218-1.001 34.408 1.966 1.244.735 4.045.969 3.54 2.96z"
            class="region_2312" />
        <path
            d="M414.406 219.585c-3.756.688-7.545-1.203-11.133-1.773-.557-2.725.117-4.68 3.14-3.23 2.99.682 4.748 4.162 7.99 3.99.093.33.01.683.003 1.013z"
            class="region_2314" />
        <path
            d="M411.938 239.443c-3.08-.316-6.292-.153-9.309-.503 2.342-.576 5.531-.02 8.181-.454.837-.024 1.136-.09 1.128.957z"
            class="region_2315" />
        <path
            d="M403.124 217.906c-4.38-.256-8.801-.646-13.14-1.198.037-2.59-4.192-3.23-4.292-.415-6.93-.235-14.052-.703-21.057-.676-1.208-3.488 1.708-3.365 4.307-3.103 6.994.105 14.036-.222 20.998.223 4.177 1.478 8.826.81 13.17 1.431.117 1.226.089 2.507.014 3.738m-4.572-3.181c-1.163-.973-3.563-1.246-4.813-.294.997 1.036 3.684 1.25 4.813.294z"
            class="region_2316" />
        <path d="M398.39 214.879c-.884.508-5.588.305-3.836-.78 1.093.164 3.351-.412 3.836.78z" class="region_2317" />
        <path
            d="M396.308 235.642c-8.107 8.834-19.542 14.477-31.525 15.347 1.022-.267 2.898-2.968 4.426-2.281 3.269.65 8.362.648 9.605-3.104-.814-3.548-5.57-3.772-8.57-3.417-3.22 1.98-2.94-1.794-1.23-3.509 4.2-2.853 9.715-2.358 14.573-2.987 4.233-.148 8.548-.334 12.72-.048m-7.435 1.537c-1.21-1.462-4.358-1.408-5.781-.117.682 1.58 4.852 1.626 5.781.117z"
            class="region_2319" />
        <path
            d="M402.561 235.716c-.201 2.379-4.106.65-5.778 1.733-.171 1.288 3.647.956 5.077 1.165.712 1.017-3.808.328-5.154.725-1.706-.236-6.342.959-2.38 1.418 2.621.457 5.411.123 7.962.68-2.114.941-5.04.319-7.434.963-3.702.655.767 2.133 2.335 1.874 1.47-.07 7.215.486 3.375 1.232-2.658.382-6.007-.166-8.127 1.607 2.475 2.042 6.269 1.371 9.307 1.904.872 3.581-2.719 2.692-5.014 2.722-10.69-.113-21.447.222-32.095-.17 1.849-1.08 4.67-.642 6.84-1.399 9.752-1.963 18.454-7.508 25.283-14.624 1.933-.032 3.884-.047 5.803.17z"
            class="region_2320" />
        <path d="M400.228 210.676c-.851.346-5.354.962-5.301-.845.89-.134 5.204-.625 5.3.845z" class="region_2322" />
        <path
            d="M408.865 211.91c-2.713-.917-5.9-.346-8.516-.976.46-1.956 4.175-.143 5.915-.266.919.229 1.886.673 2.6 1.243z"
            class="region_2323" />
        <path
            d="M394.797 210.102c-.972 1.435-4.298-.256-6.131.069-7.982-.727-16.115-1.164-24.037-1.536-.448-2.813 3.776-.626 5.42-1.074 8.234.69 16.716.995 24.782 2.112l-.032.401z"
            class="region_2324" />
        <path
            d="M399.163 196.295c-.24 3.679-3.083 6.938-6.916 6.92-7.88 1.254-15.955.082-23.765-.726 8.723-1.28 17.849 2.013 26.308-1.113 2.552-.62 2.52-3.848 4.23-5.097z"
            class="region_2325" />
        <path
            d="M389.247 212.291c-8.176.107-16.46.159-24.605-.018.652-1.58 4.136-.08 5.842-.506 4.695.056 9.46.18 14.093-.412 1.531.24 3.39.015 4.67.936z"
            class="region_2327" />
        <path
            d="M383.309 211.286c-6.153.776-12.409.307-18.604.168-.13-2.09 3.713-.504 5.24-.901 4.45.131 8.964.263 13.364.733z"
            class="region_2328" />
        <path
            d="M364.433 188.943c.624 3.035-.375 3.89-3.097 2.454-6.462-1.905-13.27-1.253-19.876-1.199-.725-2.67.897-3.309 3.268-3.02 3.386-.12 6.807-.473 10.179-.22 2.614 2.028 6.433 1.612 9.526 1.985z"
            class="region_2330" />
        <path
            d="M397.02 194.182c-7.792.914-15.725-.337-23.372-1.661a17.39 17.39 0 0 0-8.981-.145c-1.095-2.935 2.675-1.767 4.373-1.971 7.968.22 15.744 2.24 23.673 2.922 1.426.306 2.926.438 4.307.855z"
            class="region_2331" />
        <path
            d="M399.382 193.467c-3.204 1.453-6.677-.857-10.046-.713-8.242-.746-16.372-3.082-24.7-2.43-.57-2.734 3.79-.831 5.456-1.337 9.876.482 19.67 2.413 29.29 4.48z"
            class="region_2332" />
        <path
            d="M341.345 189.132c-.093 2.4-4.214.693-5.963 1.418-6.718.346-13.61 1.09-20.095 2.341 7.931-4.313 17.33-5.057 26.085-5.38-.016.54.01 1.083-.027 1.621z"
            class="region_2333" />
        <path d="M373.97 192.777c-2.783-.322-6.279-.058-8.647-.432 2.805-.68 5.94-.5 8.648.432z" class="region_2334" />
        <path d="M412.425 245.477c-1.014.095-.851-.203 0 0z" class="region_2335" />
        <path d="M364.45 192.233c-.085-3.814.082-3.886 0 0z" class="region_2336" />
        <path
            d="M364.445 210.284c-10.368.124-20.976-.918-31.152 1.535-4.933 2.253-9.455 6.147-15.214 5.884-2.627.56-5.52-.444-1.258-.416 4.235.086 8.072-1.701 11.38-4.211 4.298-2.546 8.273-6.705 13.715-6.036 7.493-.075 15.154-.393 22.54.36-.015.961.059 1.925-.01 2.884z"
            class="region_2339" />
        <path
            d="M414.402 218.325c-3.723.386-5.695-4.297-9.504-4.152-4.976-.818-10.26.08-15.061-1.594-3.09-2.021-7.18-1.18-10.708-1.765-4.766-.314-9.545-.421-14.32-.481-.89-2.757 3.763-.898 5.346-1.312 6.496.46 13.175.515 19.539 1.563 2.579 2.577 6.757 1.354 10.047 2.089 4.09.502 8.836-.179 11.823 3.316.884.92 2.747.815 2.838 2.336z"
            class="region_2340" />
        <path
            d="M413.556 216.867c-2.911-1.043-4.927-4.292-8.43-3.894-4.728-.503-9.6-.41-14.227-1.456-3.07-2.138 2.861-.456 4.153-.656 4.758.68 9.77-.077 14.369 1.43 1.753 1.085 3.088 2.855 4.135 4.576z"
            class="region_2341" />
        <path
            d="M321.322 181.463c-2.075 1.905-3.687 4.335-4.84 6.848.135-9.507-1.406-19.021-1.704-28.478 3.623 1.418 4.681 6.037 5.508 9.486.551 4.023.848 8.09 1.036 12.144z"
            class="region_2348" />
        <path
            d="M333.158 176.669c-4.084.69-8.07 2.131-11.503 4.43-.993-7.103.057-15.752-5.726-21.122-2.365-.422-1.123-3.434-1.568-5.156-1.066-3.184 1.03-3.723 3.601-2.501 6.676 1.97 12.884 7.106 13.838 14.34.686 3.277 1.353 6.64 1.358 10.009z"
            class="region_2352" />
        <path
            d="M344.091 175.875c-3.488.233-7.007.285-10.484.75-1.113-7.131-1.201-15.92-7.852-20.519-3.347-2.475-7.28-4.4-11.48-4.735-.075-3.528-.089-7.223.572-10.644 8.254 1.592 16.666 5.27 21.95 12.04 4.48 5.68 6.866 12.724 7.091 19.933l.203 3.175z"
            class="region_2362" />
        <path
            d="M355.738 160.453c-.626 5.303-1.425 10.646-2.435 15.843-2.941-.476-6.127.054-8.951-.683-.446-5.563-.746-11.331-3.308-16.41 4.832-.33 9.905.113 14.704.899z"
            class="region_2374" />
        <path
            d="M372.065 167.654c-3.932 3.565-8.054 7.072-11.202 11.4-2.137-1.554-4.906-1.994-7.228-2.9.863-5.34 1.796-10.691 2.35-16.06 5.866.846 12.045 3.1 16.08 7.56z"
            class="region_2378" />
        <path
            d="M375.908 174.367c-4.728 1.31-9.267 3.492-13.328 6.174-2.67-1.265.16-3.4 1.26-4.665 2.692-2.746 5.367-5.86 8.668-7.831 1.617 1.76 2.873 4.002 3.4 6.322z"
            class="region_2382" />
        <path
            d="M377.284 181.005c-4.131.577-8.692.783-12.843 2.038-2.52-1.552-1.008-3.348 1.161-4.084 3.29-1.647 6.843-3.953 10.501-3.962.591 1.943.941 3.999 1.181 6.008z"
            class="region_2386" />
        <path
            d="M377.533 184.547c.876 2.735-1.154 2.827-3.22 2.74-3.159-.023-6.622.86-9.527 1.004.58-1.658-1.26-4.545.255-5.173 3.974-1.004 8.102-1.678 12.204-1.596.364.932.183 2.034.288 3.025z"
            class="region_2390" />
        <path
            d="M349.104 159.023c-2.798-.224-5.775.042-8.469-.55-3.33-6.86-9.148-12.364-16.303-15.072-3.053-1.352-6.24-2.442-9.552-2.937.54-5.657 1.854-11.483 4.343-16.556 10.258 5.64 19.524 13.504 25.932 23.329 2.042 3.618 3.755 7.59 4.049 11.786z"
            class="region_2395" />
        <path
            d="M368.66 122.157c-9.278 1.887-18.57 7.754-21.218 17.328-.93 2.853-1.256 5.858-1.437 8.841-6.165-10.206-15.599-18.201-25.86-24.12-2.165-1.014 1.006-3.751 1.687-5.225 4.917-6.51 13.034-11.256 21.405-9.863 9.74 1.095 17.82 7.393 25.422 13.04z"
            class="region_2400" />
        <path
            d="M380.135 131.672c-6.8 9.17-11.43 19.72-15.616 30.277-4.767-1.538-9.816-2.449-14.848-2.903-.955-2.99-1.512-6.564-3.099-9.52-.744-3.97.448-8.273 1.827-12.049 3.312-8.377 11.885-13.535 20.455-15 3.905 2.793 8.05 5.7 11.28 9.195z"
            class="region_2404" />
        <path
            d="M399.418 153.005c-9.914 2.833-18.886 8.235-27.038 14.4-2.17-2.108-4.767-3.74-7.442-5.132 1.829-6.63 5.235-12.929 8.292-19.139 2.154-3.951 4.323-7.96 7.252-11.4 7.257 6.09 14.056 13.09 18.936 21.271z"
            class="region_2408" />
        <path
            d="M404.222 171.39c.704 3.227-2.862 2.11-4.833 2.644-7.495 1.18-15.082 3.025-21.659 6.933-.973-4.466-1.717-9.557-5.036-13.128 4.308-3.976 9.874-7.265 15.23-10.068 3.736-1.74 7.602-3.63 11.647-4.37 3.27 5.338 5.063 11.736 4.651 17.988z"
            class="region_2412" />
        <path
            d="M403.905 173.952c-.483 5.582-4.89 9.931-10.2 11.207-2.04.68-3.37-2.194-5.433-2.406-3.131-1.278-6.592-1.232-9.85-1.737 5.904-3.79 13.155-5.35 20.046-6.617 1.784-.219 3.695-.576 5.437-.447z"
            class="region_2416" />
        <path
            d="M392.236 185.535c-4.667 1.107-9.612 1.387-14.372 1.494.661-1.636-1.5-5.689.945-5.532 4.63.055 10.013.657 13.427 4.038z"
            class="region_2420" />
        <path
            d="M363.23 188.083c-9.162-2.555-18.758-.928-28.081-.407-6.568.519-13.197 1.686-19.169 4.578 7.05-5.04 16.353-5.57 24.798-6.183 6.829-.257 13.923-1.193 20.564.833.638.343 1.446.59 1.887 1.18z"
            class="region_2425" />
        <path
            d="M364.17 188.393c-5.696-4.108-13.162-2.711-19.736-2.71-9.893.585-20.515.915-29.061 6.564 3.035-4.476 8.68-7.32 14.088-8.306 9.444-1.86 19.29-2.417 28.78-.677 2.535.85 4.829 2.667 5.93 5.129z"
            class="region_2426" />
        <path
            d="M364.555 187.78c-.509.803-1.99-2.766-3.371-3.219-5.664-3.474-12.667-1.979-18.96-2.378-6.996.502-14.404 1.004-20.673 4.446-2.1 1.095-3.814 2.754-5.612 4.255 1.456-6.412 6.82-11.597 13.262-13.056 7.931-2.09 16.256-1.664 24.35-1.214 5.734.72 11.857 4.59 11.004 11.166z"
            class="region_2427" />
    </g>
    <defs id="defs1255">
        <clipPath id="p2c3f7db0c8">
            <path id="rect1252" d="M57.6 96.825h357.12v155.406H57.6z" />
        </clipPath>
    </defs>
</svg>
