<?xml version="1.0" ?>
<svg xmlns="http://www.w3.org/2000/svg" id="svg360" width="614.4" height="460.8" version="1.1"
    viewBox="0 0 460.8 345.6">
    <defs id="defs6">
        <style id="style4" type="text/css">
            * {
                stroke-linecap: butt;
                stroke-linejoin: round;
                fill: white;
                stroke: black;
            }
        </style>
    </defs>
    <g id="figure_1">
        <path d="M279.907 251.842c-.223 1.176-2.744 4.536-2.721 3.124-.45-.928 2.888-3.616 2.721-3.124z"
            id="region_1" />
        <path
            d="M272.732 80.417c-5.83.579-11.753-.07-17.612.478-3.373.245-6.718-.24-9.881-1.306-2.305.23-5.712-.266-1.812-1.518 7.437-.046 14.952-.19 22.226 1.163 2.433-.096 4.75.583 7.079 1.183z"
            id="region_8" />
        <path
            d="M309.282 112.9c-5.034 6.22-10.72 11.954-17.446 16.33-8.624 7.63-16.435 16.118-25.119 23.689-2.966 2.863-6.672 5.594-7.215 9.973-1.366 2.097-4.636.637-6.791 1.079-3.1.513-1.744-3.51-1.756-5.362.05-4.661 1.753-8.93 3.417-13.21 3.31-8.54 8.5-16.22 15.2-22.45 7.097-7.26 14.453-14.243 21.57-21.485 1.664-1.623 3.35-3.485 4.695-5.243 4.671 4.769 8.305 10.46 12.77 15.374l.675 1.305z"
            id="region_20" />
        <path
            d="M295.468 96.72c-5.185 6.132-11.39 11.391-16.868 17.295-5.096 4.732-10.08 9.678-14.608 14.93-6.066 7.09-9.865 15.94-12.488 24.827-.382 3.334-.895 6.66-.72 10.026-4.444.34-9.046.303-13.495-.379-.567-4.275.007-8.737-.432-13.073.068-8.06-.396-16.155 1.076-24.126.633-9.319 2.35-18.533 2.938-27.85.464-3.464.955-7.275 4.04-9.457 2.506-2.557 4.393-5.75 7.232-7.972 7.334-.327 14.792-.414 22.055-.213 4.435 1.228 8.94 2.62 12.216 6.053 3.362 2.602 5.938 6.096 8.925 9.063.275.241.123.575.129.875z"
            id="region_26" />
        <path
            d="M326.45 164.99c-5.294-2.769-10.94-5.246-16.466-7.686-2.15-1.04-4.146-2.362-4.483-4.93-1.398-3.287-.94-7.36.828-10.393 4.71-1.443 9.626.91 14.067 2.44 2.467 1.314 6.275 2.47 5.794 5.96.448 4.846.58 9.769.26 14.609z"
            id="region_46" />
        <path
            d="M326.522 166.067c-.98 8.208-4.469 15.764-7.793 23.22-1.447 3.238-.318 7.055-1.385 10.28-3.983.88-7.634-2.027-10.761-4.126-4.93-3.077-9.653-6.589-13.642-10.822-1.261-2.888-.17-6.237-1.055-9.288 1.382-4.943 2.94-9.894 5.908-14.172 1.922-2.905 4.703-6.588 8.58-6.152 5.54 4.052 12.472 5.61 18.325 9.184.753.438 2.037.743 1.823 1.877z"
            id="region_53" />
        <path
            d="M285.376 160.451c-1.1 3.701-2.78 7.4-4.694 10.705-7.016-2.01-14.214-4.57-20.55-8.426-1.118-3.248 2.706-5.503 4.432-7.845 5.404-4.77 10.587-9.802 15.84-14.747.518 3.675-1.38 8.124 1.248 11.482 1.533 2.803 4.32 5.357 3.724 8.831z"
            id="region_67" />
        <path
            d="M325.678 147.416c-5.01-3.296-11.093-5.714-17.192-5.94-2.654.927-6.934.669-7.37-2.804-1.073-2.274-1.237-4.726-1.684-7.197-.203-2.392-1.946-5.013-1.026-7.285 4.255-3.109 7.34-7.648 11.1-11.139a95.865 95.865 0 0 1 9.062 12.94c1.853 4.878 4.584 9.447 5.802 14.593.668 2.197 1.372 4.526 1.308 6.832z"
            id="region_74" />
        <path
            d="M300.084 138.67c-.389 7.782-2.84 15.275-6.67 22.03-2.217 4.237-4.183 8.653-6.555 12.778-1.778-.776-5.122-.961-5.85-2.73 1.68-4.133 4.833-8.164 4.3-12.812-1.582-4.275-5.984-7.642-5.103-12.643.386-2.592-.334-5.774 2.32-7.352 4.767-4.651 9.547-9.352 15.203-12.928 1.416 4.268 2.572 9.066 2.355 13.656z"
            id="region_81" />
        <path
            d="M292.387 179.602c.816 3.2-1.284 3.816-3.842 2.517-8.708-2.072-17.783-2.862-26.175-6.08-2.068-2.826-2.865-6.61-4.03-9.959-.939-2.268 1.98-4.684 3.638-2.223 9.366 5.222 20.15 7.053 29.647 11.974.67 1.077.453 2.554.762 3.77z"
            id="region_88" />
        <path
            d="M306.23 154.746c-5.872.596-8.738 6.692-11.186 11.337-1.628 2.986-1.973 6.471-3.336 9.588-1.46-.697-5.778-1.289-4.037-3.614 4.014-8.328 9.129-16.29 11.347-25.35.708-3.177.635-6.505 1.366-9.65 1.091 1.311.76 4.15 3.196 4.625 3.824-.433 1.164 2.824 1.288 4.938-1.003 2.924.883 5.416 1.362 8.126z"
            id="region_95" />
        <path
            d="M338.343 181.327c-1.917-.515-4.82-1.75-6.175.729-4.572 5.27-6.878 12.068-11.094 17.542-1.36 2.77-4.264-.442-3.304-2.491-.043-4.196.573-8.41 2.826-12.05 3.898-8.232 6.665-17.243 5.987-26.445-.04-7.665-.862-15.406-3.674-22.601-.99-3.392-3.332-6.339-4.09-9.732 2.536 3.026 3.218 7.177 6.274 9.773 4.595 7.09 7.493 15.118 9.409 23.307 1.102 4.03 1.679 8.192 2.328 12.277.317 3.26 1.316 6.457 1.513 9.691z"
            id="region_102" />
        <path
            d="M336.106 187.221c-4.315 2.895-4.21 8.555-6.063 12.919-.99 2.615-4.236 3.301-6.107 5.212-2.824 2.67-2.776-1.564-4-3.339-.629-2.063 2.758-3.179 3.21-5.255 3.048-5.355 5.659-11.19 9.969-15.643 2.773-2.062 2.304 2.643 2.83 4.24.093.625.31 1.232.161 1.866z"
            id="region_124" />
        <path
            d="M339.804 200.363c-.441 4.765-.922 9.636-3.229 13.952-.572 3.019-3.49 2.879-4.476.214-3.455-4.018-4.556-10.042-1.965-14.794 1.9-4.311 1.726-10.2 6.417-12.688 3.063 1.851 2.775 6.262 3.014 9.428.27 1.295.398 2.568.239 3.888z"
            id="region_138" />
        <path
            d="M335.08 220.468c-4.266.464-6.763-3.768-10.082-5.653-2.6-.798-2.75-2.861-2.812-5.335-1.8-2.855 1.02-3.694 2.942-5.04 1.276-1.008 5.258-4.245 3.55-.586-.469 5.007 2.008 9.824 5.611 13.16.036 1.196.891 2.314.79 3.454z"
            id="region_145" />
        <path
            d="M340.393 205.993c-.47 2.344-.278 4.752-.91 7.056-.299 2.596-.32 6.281-3.006 7.515-2.36.118-2.547-3.937-.644-4.924 2.723-4.542 3.647-9.862 3.874-15.083.195-2.926-.236-5.928-.553-8.847-.028-2.559-2.251-4.008-3.157-5.974.058-1.565-2.374-6.341.886-4.786 2.831.669 2.144 4.302 2.602 6.496.733 2.806.57 5.773.992 8.657l-.084 9.89z"
            id="region_152" />
        <path
            d="M322.405 215.438c-4.047.738-8.249-1.36-12.369-1.658-2.647.565-3.63-2.785-1.67-4.251 2.478-2.994 4.168-6.538 6.553-9.566 2.246-.985 4.625-.033 5.22 2.43 1.8 3.968 2.67 8.718 2.266 13.045z"
            id="region_166" />
        <path
            d="M285.465 197.89c-7.049 1.255-13.599 4.544-19.965 7.452-.489-4.81.096-9.813-1.018-14.621.22-1.684-1.975-6.19.169-6.007 6.967 4.127 13.163 9.55 20.606 12.861z"
            id="region_173" />
        <path
            d="M318.825 222.326c-.408 5.254-.37 10.849-1.998 15.799-2.615 2.01-5.194 4.376-8.255 5.653.342-7.11 2.117-14.294.918-21.462-.084-2.876-.916-5.666-1.398-8.447 2.424-.61 5.3.745 7.882.982 3.495-.266 3.109 2.895 2.892 5.412l-.04 2.063z"
            id="region_180" />
        <path
            d="M309.764 232.215c-.62 4.098-.656 8.313-1.67 12.332-2.319 3.083-5.914 4.521-9.406 5.73-3.436 1.192-7.32.396-10.815-.162-2.75-.33-5.338-1.365-8.134-1.48-2.246-.406-4.17-1.844-6.37-2.311-2.431-1.457-5.54-2.14-7.366-4.52-2.177-1.278-3.078-4.16-2.875-6.52 7.864-12.383 14.259-25.725 22.876-37.624 2.48-1.027 5.421-1.877 7.67.15 5.63 3.355 10.333 8.356 13.608 13.972 2.362 6.509 2.723 13.575 2.482 20.433z"
            id="region_187" />
        <path
            d="M316.013 244.507c-.518 2.325-.957 5.464-4.01 5.438-4.599 1.471-9.462.63-14.2.804 3.423-1.678 7.451-2.522 9.89-5.761 1.923-2.139 4.833-3.143 6.926-5.15 2.193-1.995 1.037 3.701 1.394 4.67z"
            id="region_194" />
        <path
            d="M285.472 198.177c-8.095 11.877-14.662 24.69-22.164 36.927-1.332-.815-.358-4.46-.585-6.334.555-7.732 2.499-15.34 2.692-23.072 6.182-3.475 12.859-6.45 19.89-7.655z"
            id="region_201" />
        <path
            d="M323.066 224.752c-.722 3.47.116 7.345-1.417 10.57-1.272.867-5.275 3.913-4.133.385.97-6.547 1.531-13.18 1.446-19.806 1.773-1.118 4.724-.263 3.99 2.37-.197 2.177.338 4.322.114 6.481z"
            id="region_208" />
        <path
            d="M333.352 233.79c-2.38 2.712-4.612 5.534-6.862 8.354-3.336 3.299-6.96 7.74-12.17 7.18 2.139-3.117 1.548-6.862 1.663-10.396 1.94-2.32 6.83-2.462 6.42-6.373.269-2.014-.41-6.26 2.72-4.033 2.836 1.312 6.32 2.215 8.28 4.717l-.037.401z"
            id="region_215" />
        <path
            d="M242.367 91.875c-2.485 7.295-1.745 15.17-3.23 22.681-.883 6.94-1.417 13.93-2.263 20.87-.157 9.097.174 18.167.227 27.255-1.508 1.752-.657-4.024-.87-5.451.102-18.748-.135-37.523.18-56.254.74-3.683 2.464-7.48 5.782-9.43z"
            id="region_228" />
        <path
            d="M251.667 81.207c-3.742 3.608-6.327 8.398-10.737 11.233-2.624 2.147-3.745 5.373-4.583 8.552.094-4.849-.268-9.756.11-14.569 1.688-2.99 3.537-7.72 7.77-6.953 2.534.258 4.864 1.341 7.416 1.58z"
            id="region_240" />
        <path d="M238.378 83.304c-1.318 1.844-.13-1.418 0-.202z" id="region_266" />
        <path
            d="M273.92 246.751c-3.58-1.003-7.035-2.68-10.457-4.164-3.467-2.071-6.597-4.773-9.185-7.856-2.079-4.087.399-8.614.695-12.864 2.264-8.858 2.982-18.072 2.655-27.174-.321-8.371-1.743-17.03-6.667-24.02-1.264-2.659-3.665-4.544-5.632-6.586 4.092-.147 8.369-.317 12.474-.013.993 4.141 2.737 8.214 4.077 12.295 2.463 9.727 3.753 19.777 3.412 29.82.084 11.112-4.827 22.302-1.475 33.317 2.216 2.99 5.38 5.212 8.932 6.35l1.171.895z"
            id="region_300" />
        <path
            d="M257.75 198.527c-.026 7.977-.905 15.944-2.824 23.704-.51 3.584-1.782 7.268-1.31 10.862.08 1.57 3.889 5.179.931 2.617-2.494-2.776-6.58-3.991-8.52-7.448-3.304-4.372-5.523-9.758-5.16-15.322-.395-5.69-.253-11.369-.706-17.059.128-3.138-.408-6.28-.416-9.442-.364-4.328-1.134-8.631-2.998-12.558-.682-3.314-.66-6.904-.266-10.22 2.804-.208 5.717.419 8.554.416 4.812 3.374 7.474 8.924 9.831 14.119 2.218 6.516 2.845 13.482 2.885 20.33z"
            id="region_327" />
        <path
            d="M241.969 221.448c-2.237-4.328-6.01-8.254-5.69-13.47l.072-35.519c.965 3.57 2.895 6.842 3.003 10.65.623 4.036.575 8.15.857 12.178.03 4.763.55 9.53.446 14.29.168 4.03.246 7.939 1.312 11.871z"
            id="region_334" />
        <path
            d="M292.83 188.267c-.674 2.646-.467 5.96-2.068 8.103-2.53.099-5.065 2.339-7.36.307-6.91-3.41-12.726-8.602-19.441-12.352-1.083-2.549-1.556-5.423-2.044-8.147 2.045.164 4.525 1.498 6.804 1.93 7.773 1.741 15.79 2.98 23.416 5.02 1.185 1.398.543 3.453.694 5.14z"
            id="region_348" />
        <path
            d="M314.712 199.994c-2.349 3.747-4.723 7.538-7.48 10.954-3.967-4.736-7.875-10.126-13.558-13.127-3.31-.702-1.937-3.388-1.477-5.784.545-2.283.597-4.81.98-7 4.07 3.749 8.38 7.417 13.203 10.256 2.403 2.197 5.6 3.146 8.332 4.701z"
            id="region_355" />
        <path
            d="M338.995 219.312c-1.108 4.664-2.015 9.75-5.393 13.432-3.193-1.954-6.757-3.618-10.372-4.875-1.175-1.91.563-4.569-.285-6.768.233-2.36-.348-4.708-.347-7.022 1.798-.874 3.558 1.942 5.166 2.739 2.296 2.503 6.309 4.902 9.628 3.234 1.325-.943 1.65-5.218 1.603-.74z"
            id="region_362" />
        <path d="M334.34 232.488c-2.029 3.073.195-2.004 0 0z" id="region_375" />
        <path
            d="M279.12 72.144c-.783 3.114-1.962 6.272-3.9 8.824-3.617-.934-7.272-1.665-10.974-1.94-6.959-1.217-14.13-.943-21.222-.956-2.38 2.608-3.216.651-2.016-2.016.536-2.805 4.859.154 5.42-2.869.952-3.324-3.022-5.722-2.225-9.152-.634-1.952 1.945-5.427-.727-6.076-1.95.008-1.723 4.231-3.655 1.124-.894-2.106.148-4.675-1.342-6.443.182-2.896-2.365-2.084-1.11-5.023 1.276-1.886 2.924-3.708 4.517-5.358 6.197-.634 12.602-.105 18.88-.288 2.294-.13 4.061 1.796 6.015 2.831.627 2.804 1.328.033 3.011 3.49 1.234 3.19 6.848.564 6.94 4.505.086 3.25-.618 6.598 1.1 9.58 1.336 3.07 1.463 6.472 1.288 9.767m-3.46 2.833c-.553-3.894.991-8.373-1.41-11.82-1.784-2.036-5.002-1.153-6.803-3.127 2.804.341 2.623-2.285 2.386-4.203-.414-2.326-1.288-3.607-1.293-4.35-1.863-2.296-2.356 1.236-4.412 1.578-2.583.805-5.067 1.541-7.794 1.515-2.95-.346-.466 3.756-2.917 3.112-3.519 1.093-2.771-2.306-5.572-2.038-2.157.449-1.45 1.427-1.71 3.301-1.886 1.482-1.022 3.315-1.257 5.794-.676 2.875 1.928 4.655 3.037 6.888-.528 1.598-.218 3.855 2.335 4.058 4.042.34 8.052 1.235 12.118 1.314 3.019.212 6.195.108 9.072 1.276 1.933-.958 4.718-.029 4.22-3.298zm-9.91-15.63c-2.405-2.814-6.483-2.041-9.682-1.554 2.652 1.227 5.82-.525 8.456 1.156.41.132.818.265 1.226.398zM236.774 79.39c.162-6.22.03-12.419-.21-18.628-.167 7.199-.225 14.52.025 21.67.138-1.002.11-2.03.185-3.042z"
            id="region_380" />
        <path
            d="M275.66 74.977c.602 2.894-2.738 2.928-4.601 3.168-4.395-1.563-9.156-.698-13.621-1.597-2.847-.321-5.812-.574-8.547-1.385-1.93-1.015-.006-4.126-2.251-5.39-2.045-1.997-1.71-4.89-1.794-7.424-.465-1.838 2.714-3.902 1.049-5.366.111-1.063 5.04-2.547 4.077.314 2.564.605 5.426.168 8.025.987 4.197-.96 7.954 1.228 11.57 2.997 2.034.695 3.932.603 5.272 2.706 1.409 3.469.448 7.373.82 10.99z"
            id="region_381" />
        <path
            d="M335.974 230.163c-1 5.108-4.052 9.624-7.576 13.328-4.012.762-1.966-1.807-.108-3.5 2.209-3.488 5.737-5.987 7.38-9.875l.264-.23z"
            id="region_496" />
        <path
            d="M328.013 243.756c-4.273 4.613-10.161 9.1-16.852 7.738-2.92-.183 3.39-.44 4.251-1.619 3.783-1.164 7.093-3.253 9.682-6.257.845-.433 2.066-.21 2.92.138z"
            id="region_509" />
        <path
            d="M316.1 249.57c-3.386 1.909-7.227 1.937-10.984 1.409.088-.15 4.48-.128 6.073-.892 1.6-.349 3.27-.99 4.91-.518z"
            id="region_524" />
        <path
            d="M277.141 254.96c-.856 2.586-4.54 2.658-5.747 5.187-1.694 1.522-2.9 3.579-5.306 4.075-4.344.48-8.991.55-13.176-.765-3.69-1.5-7.088-3.534-10.634-5.232-1.661-1.632-5.066-.055-6.058-2.009.105-4.654-.1-9.438.195-14.014.601 2.13.558 5.908 3.78 5.328 4.103.19 8.394.345 11.986-1.936 2.692-1.396 6.235-.546 8.37-3.029 1.77-.967 5.129.471 5.482 1.936-1.644 1.19-3.475 1.972-4.67 3.79-.445 2.47-1.805 3.44-4.267 3.297-2.035.441-4.138 1.159-6.013 2.418-2.075 2.557-2.519.408-3.36 2.919-1.82.767 1.353 4.242 2.906 3.274 2.084 1.209 5.223-1.795 5.99.53 1.099 2.365 3.147 1.908 5.542 1.277 1.29-1.127 4.896-1.56 3.88-3.831.64-1.259-.862-6.388 1.172-3.759.095 3.623.404-1.59 2.522-1.385-.803-2.373-.991-5.736 2.025-6.467 2.822-.602 4.081 1.604 3.395 4.142.07 1.785-.845 7.026 1.746 3.572.424.024.207.426.24.681m-34.394-3.32c-2.459-.783-2.245 4.517-1.282 4.316 2.323.318-.28-2.91 1.282-4.317z"
            id="region_807" />
        <path d="M239.184 247.406c-2.734-.37-1.786-2.252 0 0z" id="region_810" />
        <path
            d="M262.103 242.058c-2.283.618-3.859 2.843-6.487 2.525-4.037.73-7.532 3.756-11.855 2.964-2.835.383-6.838-.169-7.002-3.763-1.08-6.602-.243-13.38-.508-20.058.3-3.506-.7-7.266.71-10.582 2.988 4.332 5.332 9.495 8.25 14.045 2.036 3.36 5.348 5.597 8.587 7.582 2.264 2.917 5.867 4.657 8.305 7.287z"
            id="region_812" />
        <path
            d="M242.611 256.075c-.627-.27-1.893-.072-1.915-2.318.021-1.144 1.18-2.562 1.634-1.454-.362 2.036-.08 2.243.281 3.772z"
            id="region_815" />
        <path
            d="M271.967 246.357c-2.21.473-3.285 2.85-2.579 5.036 1.068 2.91-2.372 1.872-2.038 4.735.027-3.222-1.927-2.838-1.18.25.355 2.363-.034 4.114-2.653 4.86-1.6.548-4.993 2.357-5.883.441-1.353-2.23-.602-2.542-3.744-1.398-2.244-.115-4.797.68-6.329-1.488 1.476-1.536 1.596-4.507 4.074-5.14 1.84-1.386 4.132-1.555 6.123-2.095 2.418.654 3.481-1.167 3.611-3.265 1.181-1.78 3.13-2.56 4.65-3.881 1.348-.218 4.455 1.056 5.948 1.945z"
            id="region_816" />
        <path d="M262.57 306.677c-1.103.026.139-.493 0 0z" id="region_1015" />
        <path
            d="M267.73 263.898c-3.442 3.119-1.724 9.448-6.111 11.64-2.286 1.361-4.544 2.709-7.176 3.456-3.929 1.77-8.084 3.008-12.438 2.722-1.782-.287-5.974 1.33-5.699-1.388.03-7.63-.176-15.279 0-22.897 2.496-1.074 5.49.502 7.738 1.746 4.529 1.886 8.743 5.387 13.942 5.19 3.24.21 6.638.368 9.745-.469z"
            id="region_1043" />
        <path
            d="M268.382 291.667c-1.332 1.865-.299 5.244-3.319 5.691-2.43 1.896-5.11 3.433-7.742 4.973-3.162 1.066-6.176 2.427-9.56 2.755-3.686.54-7.51.936-11.18.161-.644-3.958-.115-8.323-.317-12.435.045-3.524-.153-7.069.047-10.58 2.048-1.002 4.637-.07 6.902-.554 5.682.184 10.843-2.555 16.003-4.562 1.641-2.015 4.316-2.503 4.78.613 1.27 3.748 2.018 7.699 2.629 11.537.336.972 1.59 1.408 1.757 2.401z"
            id="region_1047" />
        <path
            d="M263.965 303.576c-.169 3.732-4.452 3.76-7.236 3.516-6.743-.1-13.54.238-20.25-.134-1.003-3.026 3.484-.74 5.12-1.293 5.1-.202 10.28-.96 14.923-3.114 2.105-.783 4.044-2.097 5.936-3.332 1.299-2.103 1.173 3.586 1.507 4.357z"
            id="region_1051" />
        <path
            d="M304.342 255.003c-1.592 2.716-3.492 5.34-6.048 7.326-5.535 5.114-10.632 10.726-14.97 16.92-3.508 4.189-7.951 7.518-12.651 10.331-1.352 2.791-4.276 1.006-4.345-1.46-.372-4.37-1.65-8.788-3.388-12.699 1.57-2.855 2.037-6.279 3.315-9.298 1.34-1.82 2.626-3.879 4.533-5.024 1.706-3.586 6.26-4.05 8.185-7.433 1.263-1.599 1.88-5.288 4.428-4.528 4.742 1.35 9.688 1.88 14.665 1.716 2.268.162 5.549-.895 6.012 2.285.342.563.383 1.23.264 1.864z"
            id="region_1068" />
        <path
            d="M320.454 267.298c-1.03 5.195-6.338 7.658-10.17 10.605-4.562 2.438-8.552 5.757-12.934 8.44-5.56 3.427-10.908 7.705-17.56 8.846-4.2.906-8.47.796-12.706 1.247.236-2.626.973-5.18 3.357-6.64 5.661-3.49 11.031-7.61 14.826-13.122 4.644-6.787 10.966-12.09 16.644-17.91 1.425-1.605 2.248-4.057 2.963-5.45 3.799.135 7.21 2.404 10.688 3.755 3.224 2.074 5.274 6.422 4.892 10.23z"
            id="region_1073" />
        <path
            d="M319.443 277.98c-1.009 5.921-4.39 11.282-8.752 15.204-1.71 1.632-3.56 3-5.54 4.208-2.04 1.236-4.057 2.175-6.349 2.885-2.866 1.502-6.351 1.217-9.347 2.486-7.97 1.147-16.096 1.864-24.113.94-1.837-.815-2.78-4.152-1.314-5.608 3.206-2.464 7.604-1.883 11.412-2.195a35.496 35.496 0 0 0 17.162-6.5c4.73-3.12 9.556-6.065 14.123-9.469 4.369-2.057 8.066-5.368 11.828-8.185 1.31 1.713.908 4.199.89 6.235z"
            id="region_1077" />
        <path
            d="M296.386 301.424c-2.07.775-4.179 1.596-6.243 2.51-2.515.283-4.28 2.276-6.978 2.218-4.135 1.725-8.81.538-13.195.923-2.422-.218-5.163.48-7.401-.288 1.165-2.175 1.395-4.453 4.28-2.837 8.111.291 16.385.17 24.321-1.644 1.654-.58 3.482-1 5.216-.882z"
            id="region_1081" />
        <path
            d="M329.503 260.22c-.894 4.153-3.08 7.942-5.117 11.628-1.527 1.89-2.88 4.028-4.737 5.586.19-2.235-1.035-4.615-.608-6.64 3.613-5.28-.125-13.261-6.048-14.874-2.927-1.132-5.73-2.716-8.937-2.825-2.477-3.039 1.477-2.111 3.3-1.285 3.29.892 6.626.29 9.839-.38 4.252-.103 9.214-.294 12.108 3.432.436 1.772.24 3.556.2 5.358z"
            id="region_1089" />
        <path d="M309.744 252.245c-1.078-.082-5.503-.967-3.932-1.151 1.347.146 3.54-.28 3.932 1.15z" id="region_1093" />
        <path d="M239.386 81.288c-1.72 2.883-1.855 1.661-1.512-1.109-.826-1.033 2.39.46 1.512 1.109z"
            id="region_1105" />
        <path
            d="M269.946 58.512c-.52 2.496-3.777 1.174-5.09.003-2.445-1.718-5.632-1.261-8.355-.764-2.924.39-2.261-3.806.353-3.19 2.964-.029 5.704-1.083 8.551-1.84.061-2.985 3.913-1.852 3.261-.476-.476.556 2.004 2.97 1.219 5.218l.061 1.049m-23.285 14.057c-.062-3.198-3.237-5.554-2.436-8.936-.631-1.877 2.031-5.052-.749-5.674-1.805.266-2.024 4.14-3.769 1.104-.721-2.14.31-4.666-1.295-6.415.292-4.022-2.961-2.01-2.164.905-.1 4.599.484 9.135.567 13.726.23 5.638-.03 11.317-.217 16.925.82 1.546 1.571-3.017 1.195-4.306 3.165 1.87 2.623-1.695 3.137-3.624.32-3.144 4.811-.048 5.398-3.002l.173-.364z"
            id="region_1107" />
        <path
            d="M281.242 248.988c-1.123 2.91-3.716 4.937-6.051 6.665-.05-2.614-.142-5.378.087-8.015 1.837.522 3.94.96 5.964 1.35z"
            id="region_1143" />
        <path d="M192.614 251.842c.224 1.176 2.745 4.536 2.722 3.124.45-.928-2.888-3.616-2.722-3.124z"
            id="region_1328" />
        <path
            d="M199.79 80.417c5.83.579 11.752-.07 17.611.478 3.374.245 6.718-.24 9.882-1.306 2.305.23 5.711-.266 1.811-1.518-7.436-.046-14.952-.19-22.225 1.163-2.433-.096-4.75.583-7.08 1.183z"
            id="region_1335" />
        <path
            d="M163.24 112.9c5.034 6.22 10.72 11.954 17.446 16.33 8.624 7.63 16.434 16.118 25.118 23.689 2.967 2.863 6.672 5.594 7.216 9.973 1.366 2.097 4.636.637 6.79 1.079 3.1.513 1.745-3.51 1.757-5.362-.05-4.661-1.753-8.93-3.417-13.21a60.513 60.513 0 0 0-15.2-22.45c-7.097-7.26-14.453-14.243-21.57-21.485-1.664-1.623-3.35-3.485-4.695-5.243-4.669 4.772-8.309 10.456-12.771 15.374l-.675 1.305z"
            id="region_1347" />
        <path
            d="M177.054 96.72c5.185 6.132 11.39 11.391 16.868 17.295 5.095 4.732 10.08 9.678 14.608 14.93 6.065 7.09 9.865 15.94 12.487 24.827.382 3.334.896 6.66.721 10.026 4.443.34 9.046.303 13.494-.379.568-4.275-.007-8.737.432-13.073-.067-8.06.397-16.155-1.075-24.126-.634-9.319-2.35-18.533-2.939-27.85-.463-3.464-.955-7.275-4.04-9.457-2.506-2.557-4.392-5.75-7.231-7.972-7.334-.327-14.792-.414-22.055-.213-4.435 1.228-8.94 2.62-12.216 6.053-3.362 2.602-5.938 6.096-8.926 9.063-.275.241-.123.575-.128.875z"
            id="region_1353" />
        <path
            d="M146.072 164.99c5.294-2.769 10.94-5.246 16.466-7.686 2.15-1.04 4.145-2.362 4.483-4.93 1.398-3.287.94-7.36-.828-10.393-4.711-1.443-9.626.91-14.067 2.44-2.468 1.314-6.275 2.47-5.794 5.96-.449 4.846-.58 9.769-.26 14.609z"
            id="region_1373" />
        <path
            d="M146 166.067c.98 8.208 4.469 15.764 7.793 23.22 1.446 3.238.318 7.055 1.385 10.28 3.983.88 7.633-2.027 10.76-4.126 4.93-3.077 9.654-6.589 13.642-10.822 1.262-2.888.17-6.237 1.055-9.288-1.381-4.943-2.94-9.894-5.908-14.172-1.921-2.905-4.703-6.588-8.579-6.152-5.541 4.052-12.473 5.61-18.325 9.184-.753.438-2.037.743-1.823 1.877z"
            id="region_1380" />
        <path
            d="M187.145 160.451c1.1 3.701 2.78 7.4 4.695 10.705 7.015-2.01 14.214-4.57 20.55-8.426 1.118-3.248-2.706-5.503-4.432-7.845-5.405-4.77-10.587-9.802-15.84-14.747-.518 3.675 1.38 8.124-1.248 11.482-1.534 2.803-4.32 5.357-3.725 8.831z"
            id="region_1394" />
        <path
            d="M146.843 147.416c5.011-3.296 11.094-5.714 17.192-5.94 2.654.927 6.935.67 7.37-2.804 1.074-2.274 1.238-4.726 1.685-7.197.202-2.392 1.945-5.013 1.026-7.285-4.255-3.109-7.34-7.648-11.1-11.139a95.866 95.866 0 0 0-9.062 12.94c-1.854 4.878-4.584 9.447-5.802 14.593-.669 2.197-1.372 4.526-1.309 6.832z"
            id="region_1401" />
        <path
            d="M172.438 138.67c.388 7.782 2.84 15.275 6.67 22.03 2.216 4.237 4.183 8.653 6.555 12.778 1.778-.776 5.121-.961 5.85-2.73-1.681-4.133-4.834-8.164-4.301-12.812 1.582-4.275 5.984-7.642 5.103-12.643-.385-2.592.334-5.774-2.319-7.352-4.767-4.651-9.548-9.352-15.204-12.928-1.415 4.268-2.571 9.066-2.354 13.656z"
            id="region_1408" />
        <path
            d="M180.135 179.602c-.817 3.2 1.284 3.816 3.841 2.517 8.709-2.072 17.783-2.862 26.176-6.08 2.068-2.826 2.864-6.61 4.03-9.959.938-2.268-1.981-4.684-3.638-2.223-9.366 5.222-20.15 7.053-29.648 11.974-.669 1.077-.452 2.554-.761 3.77z"
            id="region_1415" />
        <path
            d="M166.292 154.746c5.872.596 8.737 6.692 11.185 11.337 1.629 2.986 1.974 6.471 3.336 9.588 1.46-.697 5.779-1.289 4.038-3.614-4.014-8.328-9.13-16.29-11.347-25.35-.709-3.177-.635-6.505-1.367-9.65-1.09 1.311-.76 4.15-3.195 4.625-3.824-.433-1.164 2.824-1.289 4.938 1.004 2.924-.882 5.416-1.361 8.126z"
            id="region_1422" />
        <path
            d="M134.178 181.327c1.918-.515 4.82-1.75 6.175.729 4.573 5.27 6.879 12.068 11.095 17.542 1.36 2.77 4.264-.442 3.303-2.491.043-4.196-.573-8.41-2.825-12.05-3.899-8.232-6.666-17.243-5.987-26.445.04-7.665.861-15.406 3.673-22.601.992-3.392 3.333-6.339 4.09-9.732-2.535 3.026-3.218 7.177-6.273 9.773-4.596 7.09-7.494 15.118-9.409 23.307-1.102 4.03-1.679 8.192-2.328 12.277-.318 3.26-1.317 6.457-1.514 9.691z"
            id="region_1429" />
        <path
            d="M136.415 187.221c4.316 2.895 4.212 8.555 6.063 12.919.99 2.615 4.237 3.301 6.108 5.212 2.824 2.67 2.776-1.564 3.999-3.339.63-2.063-2.757-3.179-3.209-5.255-3.049-5.355-5.66-11.19-9.97-15.643-2.772-2.062-2.304 2.643-2.83 4.24-.093.625-.31 1.232-.16 1.866z"
            id="region_1451" />
        <path
            d="M132.718 200.363c.44 4.765.921 9.636 3.229 13.952.572 3.019 3.49 2.879 4.475.214 3.455-4.018 4.557-10.042 1.966-14.794-1.9-4.311-1.726-10.2-6.418-12.688-3.063 1.851-2.774 6.262-3.014 9.428-.27 1.295-.398 2.568-.238 3.888z"
            id="region_1465" />
        <path
            d="M137.442 220.468c4.266.464 6.762-3.768 10.082-5.653 2.6-.798 2.75-2.861 2.812-5.335 1.8-2.855-1.02-3.694-2.942-5.04-1.276-1.008-5.258-4.245-3.55-.586.469 5.007-2.009 9.824-5.611 13.16-.036 1.196-.891 2.314-.791 3.454z"
            id="region_1472" />
        <path
            d="M132.129 205.993c.47 2.344.277 4.752.91 7.056.298 2.596.32 6.281 3.006 7.515 2.359.118 2.547-3.937.644-4.924-2.724-4.542-3.648-9.862-3.874-15.083-.195-2.926.235-5.928.553-8.847.028-2.559 2.25-4.008 3.157-5.974-.059-1.565 2.374-6.341-.886-4.786-2.831.669-2.145 4.302-2.603 6.496-.732 2.806-.568 5.773-.991 8.657l.084 9.89z"
            id="region_1479" />
        <path
            d="M150.116 215.438c4.048.738 8.25-1.36 12.37-1.658 2.646.565 3.629-2.785 1.67-4.251-2.479-2.994-4.168-6.538-6.553-9.566-2.246-.985-4.625-.033-5.22 2.43-1.801 3.968-2.67 8.718-2.267 13.045z"
            id="region_1493" />
        <path
            d="M187.057 197.89c7.048 1.255 13.598 4.544 19.965 7.452.489-4.81-.096-9.813 1.017-14.621-.219-1.684 1.976-6.19-.168-6.007-6.967 4.127-13.163 9.55-20.606 12.861z"
            id="region_1500" />
        <path
            d="M153.696 222.326c.409 5.254.371 10.849 1.999 15.799 2.615 2.01 5.194 4.376 8.254 5.653-.341-7.11-2.117-14.294-.918-21.462.085-2.876.917-5.666 1.398-8.447-2.423-.61-5.3.745-7.881.982-3.496-.266-3.11 2.895-2.892 5.412l.04 2.063z"
            id="region_1507" />
        <path
            d="M162.757 232.215c.62 4.098.657 8.313 1.67 12.332 2.32 3.083 5.915 4.521 9.406 5.73 3.436 1.192 7.32.396 10.816-.162 2.749-.33 5.337-1.365 8.134-1.48 2.246-.406 4.169-1.844 6.37-2.311 2.43-1.457 5.54-2.14 7.366-4.52 2.176-1.278 3.078-4.16 2.875-6.52-7.864-12.383-14.259-25.725-22.877-37.624-2.48-1.027-5.42-1.877-7.67.15-5.63 3.355-10.332 8.356-13.607 13.972-2.363 6.509-2.723 13.575-2.483 20.433z"
            id="region_1514" />
        <path
            d="M156.509 244.507c.517 2.325.956 5.464 4.009 5.438 4.6 1.471 9.462.63 14.2.804-3.422-1.678-7.45-2.522-9.889-5.761-1.924-2.139-4.833-3.143-6.927-5.15-2.192-1.995-1.036 3.701-1.393 4.67z"
            id="region_1521" />
        <path
            d="M187.05 198.177c8.094 11.877 14.662 24.69 22.164 36.927 1.332-.815.358-4.46.584-6.334-.554-7.732-2.498-15.34-2.691-23.072-6.183-3.475-12.86-6.45-19.89-7.655z"
            id="region_1528" />
        <path
            d="M149.455 224.752c.723 3.47-.116 7.345 1.417 10.57 1.272.867 5.275 3.913 4.134.385-.97-6.547-1.532-13.18-1.447-19.806-1.773-1.118-4.724-.263-3.989 2.37.197 2.177-.339 4.322-.115 6.481z"
            id="region_1535" />
        <path
            d="M139.17 233.79c2.379 2.712 4.611 5.534 6.861 8.354 3.337 3.299 6.96 7.74 12.171 7.18-2.14-3.117-1.548-6.862-1.663-10.396-1.94-2.32-6.83-2.462-6.42-6.373-.269-2.014.41-6.26-2.721-4.033-2.836 1.312-6.319 2.215-8.28 4.717l.038.401z"
            id="region_1542" />
        <path
            d="M230.155 91.875c2.485 7.295 1.744 15.17 3.23 22.681.883 6.94 1.416 13.93 2.263 20.87.157 9.097-.175 18.167-.227 27.255 1.508 1.752.656-4.024.87-5.451-.103-18.748.135-37.523-.18-56.254-.74-3.683-2.464-7.48-5.782-9.43z"
            id="region_1555" />
        <path
            d="M220.855 81.207c3.742 3.608 6.326 8.398 10.736 11.233 2.625 2.147 3.745 5.373 4.584 8.552-.094-4.849.268-9.756-.11-14.569-1.688-2.99-3.537-7.72-7.77-6.953-2.535.258-4.864 1.341-7.417 1.58z"
            id="region_1567" />
        <path d="M234.144 83.304c1.318 1.844.13-1.418 0-.202z" id="region_1593" />
        <path
            d="M198.601 246.751c3.58-1.003 7.036-2.68 10.457-4.164 3.467-2.071 6.598-4.773 9.185-7.856 2.08-4.087-.398-8.614-.694-12.864-2.265-8.858-2.982-18.072-2.656-27.174.322-8.371 1.744-17.03 6.668-24.02 1.264-2.659 3.665-4.544 5.632-6.586-4.092-.147-8.37-.317-12.475-.013-.993 4.141-2.736 8.214-4.077 12.295-2.462 9.727-3.752 19.777-3.412 29.82-.083 11.112 4.828 22.302 1.476 33.317-2.217 2.99-5.38 5.212-8.932 6.35l-1.172.895z"
            id="region_1627" />
        <path
            d="M214.77 198.527c.027 7.977.907 15.944 2.825 23.704.512 3.584 1.782 7.268 1.31 10.862-.08 1.57-3.888 5.179-.93 2.617 2.493-2.776 6.58-3.991 8.52-7.448 3.304-4.372 5.523-9.758 5.16-15.322.395-5.69.252-11.369.706-17.059-.128-3.138.408-6.28.415-9.442.365-4.328 1.135-8.631 2.998-12.558.683-3.314.66-6.904.266-10.22-2.803-.208-5.716.419-8.554.416-4.811 3.374-7.473 8.924-9.83 14.119-2.219 6.516-2.846 13.482-2.885 20.33z"
            id="region_1654" />
        <path
            d="M230.553 221.448c2.237-4.328 6.009-8.254 5.69-13.47l-.073-35.519c-.965 3.57-2.895 6.842-3.003 10.65-.622 4.036-.574 8.15-.856 12.178-.03 4.763-.55 9.53-.446 14.29-.168 4.03-.247 7.939-1.312 11.871z"
            id="region_1661" />
        <path
            d="M179.69 188.267c.675 2.646.469 5.96 2.07 8.103 2.53.099 5.064 2.339 7.36.307 6.91-3.41 12.725-8.602 19.44-12.352 1.083-2.549 1.557-5.423 2.044-8.147-2.045.164-4.525 1.498-6.804 1.93-7.773 1.741-15.79 2.98-23.415 5.02-1.185 1.398-.544 3.453-.694 5.14z"
            id="region_1675" />
        <path
            d="M157.81 199.994c2.349 3.747 4.723 7.538 7.48 10.954 3.967-4.736 7.874-10.126 13.557-13.127 3.31-.702 1.937-3.388 1.478-5.784-.545-2.283-.598-4.81-.98-7-4.07 3.749-8.38 7.417-13.203 10.256-2.403 2.197-5.601 3.146-8.332 4.701z"
            id="region_1682" />
        <path
            d="M133.527 219.312c1.108 4.664 2.015 9.75 5.392 13.432 3.194-1.954 6.757-3.618 10.373-4.875 1.175-1.91-.563-4.569.284-6.768-.232-2.36.348-4.708.347-7.022-1.797-.874-3.558 1.942-5.165 2.739-2.296 2.503-6.31 4.902-9.628 3.234-1.326-.943-1.65-5.218-1.603-.74z"
            id="region_1689" />
        <path d="M138.182 232.488c2.028 3.073-.196-2.004 0 0z" id="region_1702" />
        <path
            d="M193.401 72.144c.783 3.114 1.962 6.272 3.9 8.824 3.618-.934 7.272-1.665 10.975-1.94 6.958-1.217 14.13-.943 21.221-.956 2.381 2.608 3.217.651 2.016-2.016-.536-2.805-4.858.154-5.42-2.869-.951-3.324 3.022-5.722 2.225-9.152.634-1.952-1.944-5.427.727-6.076 1.95.008 1.724 4.231 3.655 1.124.894-2.106-.147-4.675 1.343-6.443-.182-2.896 2.365-2.084 1.109-5.023-1.276-1.886-2.924-3.708-4.516-5.358-6.197-.634-12.603-.105-18.88-.288-2.294-.13-4.061 1.796-6.015 2.831-.627 2.804-1.328.033-3.012 3.49-1.233 3.19-6.848.564-6.94 4.505-.085 3.25.619 6.598-1.1 9.58-1.335 3.07-1.463 6.472-1.288 9.767m3.461 2.833c.553-3.894-.991-8.373 1.41-11.82 1.784-2.036 5.001-1.153 6.803-3.127-2.804.341-2.623-2.285-2.386-4.203.414-2.326 1.288-3.607 1.293-4.35 1.862-2.296 2.356 1.236 4.411 1.578 2.584.805 5.067 1.541 7.794 1.515 2.95-.346.466 3.756 2.918 3.112 3.518 1.093 2.77-2.306 5.572-2.038 2.156.449 1.45 1.427 1.71 3.301 1.886 1.482 1.021 3.315 1.256 5.794.676 2.875-1.927 4.655-3.036 6.888.527 1.598.218 3.855-2.335 4.058-4.043.34-8.052 1.235-12.118 1.314-3.02.212-6.195.108-9.072 1.276-1.934-.958-4.719-.029-4.22-3.298zm9.91-15.63c2.405-2.814 6.482-2.041 9.681-1.554-2.651 1.227-5.82-.525-8.456 1.156l-1.226.398zm28.976 20.044c-.163-6.22-.03-12.419.21-18.628.167 7.199.224 14.52-.026 21.67-.138-1.002-.109-2.03-.184-3.042z"
            id="region_1707" />
        <path
            d="M196.862 74.977c-.602 2.894 2.738 2.928 4.601 3.168 4.394-1.563 9.155-.698 13.62-1.597 2.848-.321 5.813-.574 8.548-1.385 1.93-1.015.006-4.126 2.25-5.39 2.046-1.997 1.71-4.89 1.794-7.424.466-1.838-2.713-3.902-1.048-5.366-.112-1.063-5.04-2.547-4.077.314-2.564.605-5.426.168-8.025.987-4.197-.96-7.955 1.228-11.57 2.997-2.034.695-3.933.603-5.273 2.706-1.408 3.469-.448 7.373-.82 10.99z"
            id="region_1708" />
        <path
            d="M136.548 230.163c1 5.108 4.051 9.624 7.576 13.328 4.011.762 1.966-1.807.108-3.5-2.21-3.488-5.737-5.987-7.38-9.875l-.265-.23z"
            id="region_1823" />
        <path
            d="M144.508 243.756c4.274 4.613 10.162 9.1 16.853 7.738 2.92-.183-3.39-.44-4.252-1.619-3.782-1.164-7.092-3.253-9.681-6.257-.846-.433-2.066-.21-2.92.138z"
            id="region_1836" />
        <path
            d="M156.422 249.57c3.386 1.909 7.226 1.937 10.984 1.409-.088-.15-4.48-.128-6.073-.892-1.6-.349-3.271-.99-4.91-.518z"
            id="region_1851" />
        <path
            d="M195.38 254.96c.857 2.586 4.54 2.658 5.748 5.187 1.694 1.522 2.9 3.579 5.306 4.075 4.343.48 8.99.55 13.175-.765 3.691-1.5 7.09-3.534 10.634-5.232 1.662-1.632 5.066-.055 6.058-2.009-.104-4.654.1-9.438-.194-14.014-.602 2.13-.559 5.908-3.78 5.328-4.104.19-8.394.345-11.986-1.936-2.692-1.396-6.235-.546-8.37-3.029-1.77-.967-5.13.471-5.483 1.936 1.645 1.19 3.475 1.972 4.67 3.79.446 2.47 1.805 3.44 4.268 3.297 2.035.441 4.137 1.159 6.013 2.418 2.075 2.557 2.519.408 3.36 2.919 1.82.767-1.353 4.242-2.907 3.274-2.083 1.209-5.222-1.795-5.99.53-1.098 2.365-3.147 1.908-5.542 1.277-1.289-1.127-4.895-1.56-3.88-3.831-.64-1.259.863-6.388-1.172-3.759-.094 3.623-.404-1.59-2.521-1.385.802-2.373.991-5.736-2.025-6.467-2.822-.602-4.082 1.604-3.395 4.142-.07 1.785.844 7.026-1.747 3.572-.423.024-.207.426-.24.681m34.395-3.32c2.458-.783 2.245 4.517 1.281 4.316-2.323.318.28-2.91-1.281-4.317z"
            id="region_2134" />
        <path d="M233.338 247.406c2.734-.37 1.785-2.252 0 0z" id="region_2137" />
        <path
            d="M210.419 242.058c2.283.618 3.858 2.843 6.486 2.525 4.038.73 7.532 3.756 11.856 2.964 2.835.383 6.838-.169 7.002-3.763 1.08-6.602.242-13.38.507-20.058-.3-3.506.7-7.266-.71-10.582-2.987 4.332-5.332 9.495-8.249 14.045-2.037 3.36-5.349 5.597-8.587 7.582-2.265 2.917-5.867 4.657-8.305 7.287z"
            id="region_2139" />
        <path
            d="M229.91 256.075c.628-.27 1.893-.072 1.916-2.318-.022-1.144-1.18-2.562-1.634-1.454.362 2.036.079 2.243-.282 3.772z"
            id="region_2142" />
        <path
            d="M200.555 246.357c2.21.473 3.284 2.85 2.578 5.036-1.068 2.91 2.373 1.872 2.038 4.735-.027-3.222 1.927-2.838 1.18.25-.354 2.363.034 4.114 2.654 4.86 1.599.548 4.993 2.357 5.882.441 1.354-2.23.603-2.542 3.745-1.398 2.244-.115 4.796.68 6.329-1.488-1.477-1.536-1.596-4.507-4.075-5.14-1.84-1.386-4.131-1.555-6.122-2.095-2.419.654-3.482-1.167-3.612-3.265-1.18-1.78-3.13-2.56-4.65-3.881-1.348-.218-4.454 1.056-5.947 1.945z"
            id="region_2143" />
        <path d="M209.952 306.677c1.102.026-.139-.493 0 0z" id="region_2342" />
        <path
            d="M204.79 263.898c3.443 3.119 1.726 9.448 6.113 11.64 2.286 1.361 4.544 2.709 7.175 3.456 3.93 1.77 8.085 3.008 12.438 2.722 1.783-.287 5.975 1.33 5.7-1.388-.03-7.63.176-15.279 0-22.897-2.496-1.074-5.49.502-7.738 1.746-4.529 1.886-8.743 5.387-13.943 5.19-3.239.21-6.638.368-9.744-.469z"
            id="region_2370" />
        <path
            d="M204.14 291.667c1.331 1.865.299 5.244 3.319 5.691 2.429 1.896 5.11 3.433 7.741 4.973 3.163 1.066 6.177 2.427 9.56 2.755 3.686.54 7.51.936 11.18.161.645-3.958.115-8.323.318-12.435-.046-3.524.152-7.069-.047-10.58-2.048-1.002-4.637-.07-6.902-.554-5.683.184-10.844-2.555-16.003-4.562-1.641-2.015-4.317-2.503-4.78.613-1.271 3.748-2.019 7.699-2.629 11.537-.337.972-1.59 1.408-1.757 2.401z"
            id="region_2374" />
        <path
            d="M208.557 303.576c.169 3.732 4.452 3.76 7.236 3.516 6.743-.1 13.54.238 20.25-.134 1.003-3.026-3.485-.74-5.121-1.293-5.1-.202-10.28-.96-14.923-3.114-2.105-.783-4.043-2.097-5.935-3.332-1.3-2.103-1.173 3.586-1.507 4.357z"
            id="region_2378" />
        <path
            d="M168.18 255.003c1.591 2.716 3.492 5.34 6.047 7.326 5.535 5.114 10.633 10.726 14.97 16.92 3.509 4.189 7.952 7.518 12.652 10.331 1.352 2.791 4.276 1.006 4.344-1.46.372-4.37 1.65-8.788 3.389-12.699-1.57-2.855-2.037-6.279-3.315-9.298-1.341-1.82-2.626-3.879-4.533-5.024-1.706-3.586-6.26-4.05-8.185-7.433-1.263-1.599-1.88-5.288-4.428-4.528-4.742 1.35-9.688 1.88-14.666 1.716-2.267.162-5.548-.895-6.01 2.285-.344.563-.384 1.23-.265 1.864z"
            id="region_2395" />
        <path
            d="M152.068 267.298c1.03 5.195 6.338 7.658 10.169 10.605 4.563 2.438 8.553 5.757 12.935 8.44 5.56 3.427 10.908 7.705 17.559 8.846 4.2.906 8.471.796 12.707 1.247-.236-2.626-.973-5.18-3.358-6.64-5.66-3.49-11.03-7.61-14.825-13.122-4.644-6.787-10.967-12.09-16.645-17.91-1.425-1.605-2.247-4.057-2.962-5.45-3.8.135-7.21 2.404-10.688 3.755-3.224 2.074-5.274 6.422-4.892 10.23z"
            id="region_2400" />
        <path
            d="M153.078 277.98c1.01 5.921 4.391 11.282 8.752 15.204 1.71 1.632 3.56 3 5.54 4.208 2.041 1.236 4.057 2.175 6.35 2.885 2.866 1.502 6.35 1.217 9.347 2.486 7.97 1.147 16.096 1.864 24.113.94 1.837-.815 2.779-4.152 1.314-5.608-3.206-2.464-7.604-1.883-11.412-2.195a35.496 35.496 0 0 1-17.162-6.5c-4.73-3.12-9.557-6.065-14.124-9.469-4.368-2.057-8.065-5.368-11.828-8.185-1.31 1.713-.907 4.199-.89 6.235z"
            id="region_2404" />
        <path
            d="M176.135 301.424c2.071.775 4.18 1.596 6.244 2.51 2.515.283 4.28 2.276 6.978 2.218 4.135 1.725 8.81.538 13.195.923 2.422-.218 5.162.48 7.4-.288-1.165-2.175-1.395-4.453-4.28-2.837-8.11.291-16.384.17-24.32-1.644-1.654-.58-3.483-1-5.217-.882z"
            id="region_2408" />
        <path
            d="M143.018 260.22c.894 4.153 3.08 7.942 5.117 11.628 1.527 1.89 2.881 4.028 4.737 5.586-.188-2.235 1.035-4.615.609-6.64-3.614-5.28.125-13.261 6.047-14.874 2.928-1.132 5.731-2.716 8.938-2.825 2.476-3.039-1.477-2.111-3.3-1.285-3.29.892-6.626.29-9.84-.38-4.252-.103-9.213-.294-12.107 3.432-.436 1.772-.24 3.556-.2 5.358z"
            id="region_2416" />
        <path d="M162.778 252.245c1.077-.082 5.502-.967 3.932-1.151-1.348.146-3.54-.28-3.932 1.15z" id="region_2420" />
        <path d="M233.136 81.288c1.72 2.883 1.854 1.661 1.512-1.109.825-1.033-2.39.46-1.512 1.109z" id="region_2432" />
        <path
            d="M202.575 58.512c.52 2.496 3.778 1.174 5.091.003 2.445-1.718 5.632-1.261 8.355-.764 2.924.39 2.261-3.806-.354-3.19-2.963-.029-5.704-1.083-8.55-1.84-.062-2.985-3.913-1.852-3.261-.476.476.556-2.004 2.97-1.22 5.218l-.06 1.049m23.285 14.057c.062-3.198 3.237-5.554 2.436-8.936.63-1.877-2.032-5.052.748-5.674 1.805.266 2.025 4.14 3.77 1.104.72-2.14-.31-4.666 1.294-6.415-.291-4.022 2.962-2.01 2.165.905.099 4.599-.485 9.135-.568 13.726-.23 5.638.03 11.317.217 16.925-.82 1.546-1.57-3.017-1.194-4.306-3.165 1.87-2.624-1.695-3.138-3.624-.32-3.144-4.81-.048-5.397-3.002l-.173-.364z"
            id="region_2434" />
        <path
            d="M191.28 248.988c1.123 2.91 3.716 4.937 6.05 6.665.05-2.614.143-5.378-.087-8.015-1.836.522-3.94.96-5.963 1.35z"
            id="region_2470" />
    </g>
</svg>
